STARTFONT 2.1
COMMENT
COMMENT Converted from OpenType font "monoMMM_5.ttf" by "otf2bdf 3.0".
COMMENT
FONT -FreeType-monoMMM_5-Medium-R-Normal--33-240-100-100-P-144-ISO10646-1
SIZE 24 100 100
FONTBOUNDINGBOX 22 41 0 -7
STARTPROPERTIES 19
FOUNDRY "FreeType"
FAMILY_NAME "monoMMM_5"
WEIGHT_NAME "Medium"
SLANT "R"
SETWIDTH_NAME "Normal"
ADD_STYLE_NAME ""
PIXEL_SIZE 33
POINT_SIZE 240
RESOLUTION_X 100
RESOLUTION_Y 100
SPACING "P"
AVERAGE_WIDTH 144
CHARSET_REGISTRY "ISO10646"
CHARSET_ENCODING "1"
FONT_ASCENT 33
FONT_DESCENT 7
COPYRIGHT "Marcelo Magalhães Macedo - 2009"
_OTF_FONTFILE "monoMMM_5.ttf"
_OTF_PSNAME "monoMMM5-Regular"
ENDPROPERTIES
CHARS 258
STARTCHAR 0020
ENCODING 32
SWIDTH 660 0
DWIDTH 22 0
BBX 0 0 0 0
BITMAP
ENDCHAR
STARTCHAR 0021
ENCODING 33
SWIDTH 660 0
DWIDTH 22 0
BBX 4 26 7 0
BITMAP
F0
F0
F0
F0
F0
F0
F0
F0
F0
F0
F0
F0
F0
F0
F0
F0
F0
F0
00
00
00
00
60
F0
F0
60
ENDCHAR
STARTCHAR 0022
ENCODING 34
SWIDTH 660 0
DWIDTH 22 0
BBX 11 11 4 15
BITMAP
E1E0
E1E0
E1E0
E1E0
E1E0
E1E0
E1E0
E1E0
E1E0
E1E0
E1E0
ENDCHAR
STARTCHAR 0023
ENCODING 35
SWIDTH 660 0
DWIDTH 22 0
BBX 18 19 0 7
BITMAP
0E1E00
0E1E00
0E1E00
0E1E00
FFFFC0
FFFFC0
FFFFC0
FFFFC0
0E1E00
0E1E00
0E1E00
FFFFC0
FFFFC0
FFFFC0
FFFFC0
0E1E00
0E1E00
0E1E00
0E1E00
ENDCHAR
STARTCHAR 0024
ENCODING 36
SWIDTH 660 0
DWIDTH 22 0
BBX 18 33 0 -4
BITMAP
01E000
01E000
01E000
07FC00
1FFE00
3FFF00
7FFF80
79E7C0
F1E3C0
F1E3C0
F1E1C0
F1E000
F1E000
79E000
7FFC00
3FFE00
1FFF00
07FF80
01E7C0
01E3C0
01E3C0
F1E1C0
F1E3C0
F1E3C0
79E7C0
7FFF80
3FFF00
1FFE00
07FC00
01E000
01E000
01E000
01E000
ENDCHAR
STARTCHAR 0025
ENCODING 37
SWIDTH 660 0
DWIDTH 22 0
BBX 18 26 0 0
BITMAP
0C01C0
3F03C0
7F8780
73C780
E1CF00
E1CE00
73DE00
7F9C00
3F3C00
1E7800
007800
00F000
00E000
01E000
01C000
03C000
078800
07BF00
0F7F80
0E7BC0
1EF1C0
1CE1C0
3C73C0
787F80
783F80
F01E00
ENDCHAR
STARTCHAR 0026
ENCODING 38
SWIDTH 660 0
DWIDTH 22 0
BBX 19 27 0 -1
BITMAP
07F000
1FF800
3FFC00
7FFC00
7C1E00
F01E00
F03C00
F07C00
F0F800
F1F000
7BE000
7FC000
3F8000
3F0000
7F8080
7BC1C0
F1E3E0
F0F7E0
F07FC0
F03F80
F03F00
787F00
7FFF80
3FF7C0
1FE3E0
07C1C0
000080
ENDCHAR
STARTCHAR 0027
ENCODING 39
SWIDTH 660 0
DWIDTH 22 0
BBX 4 11 7 15
BITMAP
F0
F0
F0
F0
F0
F0
F0
F0
F0
F0
F0
ENDCHAR
STARTCHAR 0028
ENCODING 40
SWIDTH 660 0
DWIDTH 22 0
BBX 8 33 7 -4
BITMAP
0F
1F
3F
7E
78
F0
F0
F0
F0
F0
F0
F0
F0
F0
F0
F0
F0
F0
F0
F0
F0
F0
F0
F0
F0
F0
F0
78
7C
3F
3F
0F
03
ENDCHAR
STARTCHAR 0029
ENCODING 41
SWIDTH 660 0
DWIDTH 22 0
BBX 7 33 4 -4
BITMAP
E0
F0
F8
7C
3E
1E
1E
1E
1E
1E
1E
1E
1E
1E
1E
1E
1E
1E
1E
1E
1E
1E
1E
1E
1E
1E
1E
1E
7C
FC
F8
F0
80
ENDCHAR
STARTCHAR 002A
ENCODING 42
SWIDTH 660 0
DWIDTH 22 0
BBX 18 19 0 7
BITMAP
01E000
01E000
01E000
41E100
71E380
7DEF80
FFFFC0
3FFF00
0FFE00
07F800
0FFE00
3FFF00
FFFFC0
7DEF80
71E380
21E100
01E000
01E000
01E000
ENDCHAR
STARTCHAR 002B
ENCODING 43
SWIDTH 660 0
DWIDTH 22 0
BBX 18 18 0 4
BITMAP
01E000
01E000
01E000
01E000
01E000
01E000
01E000
FFFFC0
FFFFC0
FFFFC0
FFFFC0
01E000
01E000
01E000
01E000
01E000
01E000
01E000
ENDCHAR
STARTCHAR 002C
ENCODING 44
SWIDTH 660 0
DWIDTH 22 0
BBX 7 14 5 -7
BITMAP
3C
3E
7E
3E
3E
0E
0E
0E
0E
1C
38
70
E0
40
ENDCHAR
STARTCHAR 002D
ENCODING 45
SWIDTH 660 0
DWIDTH 22 0
BBX 11 4 4 11
BITMAP
FFE0
FFE0
FFE0
FFE0
ENDCHAR
STARTCHAR 002E
ENCODING 46
SWIDTH 660 0
DWIDTH 22 0
BBX 6 6 6 0
BITMAP
20
78
FC
FC
7C
38
ENDCHAR
STARTCHAR 002F
ENCODING 47
SWIDTH 660 0
DWIDTH 22 0
BBX 19 33 2 -4
BITMAP
000180
0001E0
0003C0
0003C0
000780
000780
000F00
000F00
001E00
001E00
003C00
003C00
007800
007800
00F000
00F000
01E000
01E000
03C000
03C000
078000
078000
0F0000
0F0000
1E0000
3E0000
3C0000
7C0000
780000
F80000
F00000
700000
200000
ENDCHAR
STARTCHAR 0030
ENCODING 48
SWIDTH 660 0
DWIDTH 22 0
BBX 18 26 0 0
BITMAP
07FC00
1FFE00
3FFF00
7FFF80
7C07C0
F003C0
F007C0
F00FC0
F01FC0
F03FC0
F07DC0
F0F9C0
F1F1C0
F3E1C0
F7C1C0
FF81C0
FF01C0
FE01C0
FC01C0
F803C0
F003C0
7807C0
7FFF80
3FFF00
1FFE00
07FC00
ENDCHAR
STARTCHAR 0031
ENCODING 49
SWIDTH 660 0
DWIDTH 22 0
BBX 13 26 2 0
BITMAP
0780
0780
0780
1F80
FF80
FF80
FF80
FF80
0780
0780
0780
0780
0780
0780
0780
0780
0780
0780
0780
0780
0780
0780
3FF8
3FF8
3FF8
3FF8
ENDCHAR
STARTCHAR 0032
ENCODING 50
SWIDTH 660 0
DWIDTH 22 0
BBX 18 26 0 0
BITMAP
07FC00
1FFE00
3FFF00
7FFF80
7C07C0
F003C0
F003C0
F001C0
0001C0
0003C0
0007C0
000F80
001F00
003E00
007C00
00F800
01F000
03E000
07C000
0F8000
1F0000
3E0000
7FFFC0
FFFFC0
FFFFC0
FFFFC0
ENDCHAR
STARTCHAR 0033
ENCODING 51
SWIDTH 660 0
DWIDTH 22 0
BBX 18 26 0 0
BITMAP
03F800
1FFE00
3FFF00
7FFF80
7C07C0
F003C0
F003C0
F001C0
0001C0
0003C0
0007C0
01FF80
01FF00
01FF00
01FF80
000780
0003C0
0003C0
0001C0
F001C0
F003C0
7807C0
7FFF80
3FFF80
1FFE00
07FC00
ENDCHAR
STARTCHAR 0034
ENCODING 52
SWIDTH 660 0
DWIDTH 22 0
BBX 18 26 0 0
BITMAP
000E00
001E00
003E00
007E00
00FE00
01FE00
03FE00
07DE00
0F9E00
1F1E00
3E1E00
7C1E00
F81E00
F01E00
F01E00
FFFFC0
FFFFC0
FFFFC0
FFFFC0
001E00
001E00
001E00
001E00
001E00
001E00
001E00
ENDCHAR
STARTCHAR 0035
ENCODING 53
SWIDTH 660 0
DWIDTH 22 0
BBX 18 26 0 0
BITMAP
FFFF80
FFFF80
FFFF80
FFFF80
F00000
F00000
F00000
F00000
FFFC00
FFFF00
FFFF80
000F80
0003C0
0003C0
0001C0
0001C0
0001C0
0001C0
0001C0
F001C0
F003C0
7807C0
7FFF80
3FFF00
1FFE00
07FC00
ENDCHAR
STARTCHAR 0036
ENCODING 54
SWIDTH 660 0
DWIDTH 22 0
BBX 18 26 0 0
BITMAP
03FE00
1FFE00
3FFE00
7FFE00
7C0000
F00000
F00000
F00000
F00000
F00000
F00000
FFF800
FFFE00
FFFF00
FFFF80
F007C0
F003C0
F003C0
F001C0
F001C0
F003C0
7807C0
7FFF80
3FFF00
1FFE00
07FC00
ENDCHAR
STARTCHAR 0037
ENCODING 55
SWIDTH 660 0
DWIDTH 22 0
BBX 18 26 0 0
BITMAP
FFFFC0
FFFFC0
FFFFC0
FFFFC0
0001C0
0001C0
0001C0
0001C0
0003C0
0003C0
000780
000F80
001F00
003E00
003C00
007800
00F800
00F000
00F000
00E000
01E000
01E000
01E000
01E000
01E000
01E000
ENDCHAR
STARTCHAR 0038
ENCODING 56
SWIDTH 660 0
DWIDTH 22 0
BBX 18 26 0 0
BITMAP
07FC00
1FFE00
3FFF00
7FFF80
7807C0
F003C0
F003C0
F001C0
F003C0
F003C0
7807C0
7FFF80
3FFF00
3FFF00
7FFF80
7807C0
F003C0
F003C0
F001C0
F001C0
F003C0
7807C0
7FFF80
3FFF80
1FFE00
07FC00
ENDCHAR
STARTCHAR 0039
ENCODING 57
SWIDTH 660 0
DWIDTH 22 0
BBX 18 26 0 0
BITMAP
03F800
1FFE00
3FFF00
7FFF80
7C07C0
F003C0
F003C0
F001C0
F001C0
F001C0
7801C0
7FFFC0
3FFFC0
1FFFC0
07FFC0
0001C0
0001C0
0001C0
0001C0
0001C0
0003C0
0007C0
0FFF80
0FFF00
0FFE00
0FFC00
ENDCHAR
STARTCHAR 003A
ENCODING 58
SWIDTH 660 0
DWIDTH 22 0
BBX 6 16 6 1
BITMAP
78
7C
FC
7C
38
00
00
00
00
00
00
78
7C
FC
7C
38
ENDCHAR
STARTCHAR 003B
ENCODING 59
SWIDTH 660 0
DWIDTH 22 0
BBX 7 23 5 -7
BITMAP
08
3C
7E
7E
3E
1C
00
00
00
3C
3E
7E
3E
3E
0E
0E
0E
0E
1C
38
70
E0
40
ENDCHAR
STARTCHAR 003C
ENCODING 60
SWIDTH 660 0
DWIDTH 22 0
BBX 16 27 3 -1
BITMAP
0004
000E
001F
003E
007C
00F8
01F0
03E0
07C0
0F80
1F00
3E00
7C00
F800
7C00
3E00
1F00
0F80
07C0
03E0
01F0
00F8
007C
003E
001F
000E
0004
ENDCHAR
STARTCHAR 003D
ENCODING 61
SWIDTH 660 0
DWIDTH 22 0
BBX 18 12 0 7
BITMAP
FFFFC0
FFFFC0
FFFFC0
FFFFC0
000000
000000
000000
000000
FFFFC0
FFFFC0
FFFFC0
FFFFC0
ENDCHAR
STARTCHAR 003E
ENCODING 62
SWIDTH 660 0
DWIDTH 22 0
BBX 16 28 3 -1
BITMAP
2000
7000
F800
7C00
3E00
1F00
0F80
0FC0
07E0
03F0
01F8
00FC
007E
003E
001F
003E
007C
00F8
01F0
03E0
07C0
0F80
1F00
3E00
7C00
F800
7000
2000
ENDCHAR
STARTCHAR 003F
ENCODING 63
SWIDTH 660 0
DWIDTH 22 0
BBX 18 26 0 0
BITMAP
03F800
1FFE00
3FFF00
7FFF80
7C07C0
F003C0
F003C0
F001C0
0001C0
0003C0
0007C0
000F80
001F00
003E00
007C00
00F800
01F000
01E000
01E000
01E000
01E000
000000
00C000
01E000
01E000
00C000
ENDCHAR
STARTCHAR 0040
ENCODING 64
SWIDTH 660 0
DWIDTH 22 0
BBX 18 26 0 0
BITMAP
03F800
1FFE00
3FFF00
7FFF80
7C07C0
F003C0
F003C0
F001C0
F07FC0
F0FFC0
F1FFC0
F1E3C0
F1E1C0
F1E1C0
F1E1C0
F1FFC0
F0FFC0
F0FF80
F03F00
F00000
F00000
780000
7FFFC0
3FFFC0
1FFFC0
07FFC0
ENDCHAR
STARTCHAR 0041
ENCODING 65
SWIDTH 660 0
DWIDTH 22 0
BBX 18 26 0 0
BITMAP
03F800
1FFE00
3FFF00
7FFF80
7C07C0
F003C0
F003C0
F001C0
F001C0
F001C0
F001C0
F001C0
F001C0
F001C0
F001C0
FFFFC0
FFFFC0
FFFFC0
FFFFC0
F001C0
F001C0
F001C0
F001C0
F001C0
F001C0
F001C0
ENDCHAR
STARTCHAR 0042
ENCODING 66
SWIDTH 660 0
DWIDTH 22 0
BBX 18 26 0 0
BITMAP
FFFC00
FFFE00
FFFF00
FFFF80
F007C0
F003C0
F003C0
F001C0
F003C0
F003C0
F007C0
FFFF80
FFFF00
FFFF00
FFFF80
F007C0
F003C0
F003C0
F001C0
F003C0
F003C0
F007C0
FFFF80
FFFF80
FFFE00
FFFC00
ENDCHAR
STARTCHAR 0043
ENCODING 67
SWIDTH 660 0
DWIDTH 22 0
BBX 18 26 0 0
BITMAP
07F800
1FFE00
3FFF00
7FFF80
7C07C0
F003C0
F003C0
F001C0
F00000
F00000
F00000
F00000
F00000
F00000
F00000
F00000
F00000
F00000
F001C0
F003C0
F003C0
7807C0
7FFF80
3FFF00
1FFE00
07FC00
ENDCHAR
STARTCHAR 0044
ENCODING 68
SWIDTH 660 0
DWIDTH 22 0
BBX 18 26 0 0
BITMAP
FFFC00
FFFE00
FFFF00
FFFF80
F007C0
F003C0
F003C0
F001C0
F001C0
F001C0
F001C0
F001C0
F001C0
F001C0
F001C0
F001C0
F001C0
F001C0
F001C0
F003C0
F003C0
F007C0
FFFF80
FFFF00
FFFE00
FFFC00
ENDCHAR
STARTCHAR 0045
ENCODING 69
SWIDTH 660 0
DWIDTH 22 0
BBX 18 26 0 0
BITMAP
FFFFC0
FFFFC0
FFFFC0
FFFFC0
F00000
F00000
F00000
F00000
F00000
F00000
F00000
FFFE00
FFFE00
FFFE00
FFFE00
F00000
F00000
F00000
F00000
F00000
F00000
F00000
FFFFC0
FFFFC0
FFFFC0
FFFFC0
ENDCHAR
STARTCHAR 0046
ENCODING 70
SWIDTH 660 0
DWIDTH 22 0
BBX 18 26 0 0
BITMAP
FFFFC0
FFFFC0
FFFFC0
FFFFC0
F00000
F00000
F00000
F00000
F00000
F00000
F00000
FFFE00
FFFE00
FFFE00
FFFE00
F00000
F00000
F00000
F00000
F00000
F00000
F00000
F00000
F00000
F00000
F00000
ENDCHAR
STARTCHAR 0047
ENCODING 71
SWIDTH 660 0
DWIDTH 22 0
BBX 18 26 0 0
BITMAP
07F800
1FFE00
3FFF00
7FFF80
7C07C0
F003C0
F003C0
F001C0
F00000
F00000
F00000
F01FC0
F01FC0
F01FC0
F01FC0
F001C0
F001C0
F001C0
F001C0
F003C0
F003C0
7807C0
7FFF80
3FFF00
1FFE00
07FC00
ENDCHAR
STARTCHAR 0048
ENCODING 72
SWIDTH 660 0
DWIDTH 22 0
BBX 18 26 0 0
BITMAP
F001C0
F001C0
F001C0
F001C0
F001C0
F001C0
F001C0
F001C0
F001C0
F001C0
F001C0
FFFFC0
FFFFC0
FFFFC0
FFFFC0
F001C0
F001C0
F001C0
F001C0
F001C0
F001C0
F001C0
F001C0
F001C0
F001C0
F001C0
ENDCHAR
STARTCHAR 0049
ENCODING 73
SWIDTH 660 0
DWIDTH 22 0
BBX 18 26 0 0
BITMAP
FFFFC0
FFFFC0
FFFFC0
FFFFC0
01E000
01E000
01E000
01E000
01E000
01E000
01E000
01E000
01E000
01E000
01E000
01E000
01E000
01E000
01E000
01E000
01E000
01E000
FFFFC0
FFFFC0
FFFFC0
FFFFC0
ENDCHAR
STARTCHAR 004A
ENCODING 74
SWIDTH 660 0
DWIDTH 22 0
BBX 18 26 0 0
BITMAP
0001C0
0001C0
0001C0
0001C0
0001C0
0001C0
0001C0
0001C0
0001C0
0001C0
0001C0
0001C0
0001C0
0001C0
0001C0
F001C0
F001C0
F001C0
F001C0
F003C0
F003C0
7807C0
7FFF80
3FFF00
1FFE00
07FC00
ENDCHAR
STARTCHAR 004B
ENCODING 75
SWIDTH 660 0
DWIDTH 22 0
BBX 18 26 0 0
BITMAP
F003C0
F007C0
F00F80
F01F00
F03E00
F07C00
F0F800
F1F000
F3E000
F7C000
FF8000
FF0000
FE0000
FE0000
FF0000
FF8000
F7C000
F3E000
F1F000
F0F800
F07C00
F03E00
F01F00
F00F80
F007C0
F003C0
ENDCHAR
STARTCHAR 004C
ENCODING 76
SWIDTH 660 0
DWIDTH 22 0
BBX 18 26 0 0
BITMAP
F00000
F00000
F00000
F00000
F00000
F00000
F00000
F00000
F00000
F00000
F00000
F00000
F00000
F00000
F00000
F00000
F00000
F00000
F00000
F00000
F00000
F00000
FFFFC0
FFFFC0
FFFFC0
FFFFC0
ENDCHAR
STARTCHAR 004D
ENCODING 77
SWIDTH 660 0
DWIDTH 22 0
BBX 18 26 0 0
BITMAP
F001C0
F003C0
F807C0
FC07C0
FC0FC0
FE0FC0
FE1FC0
FF3FC0
FFBDC0
F7F9C0
F3F9C0
F3F1C0
F1F1C0
F1E1C0
F0C1C0
F041C0
F081C0
F001C0
F001C0
F001C0
F001C0
F001C0
F001C0
F001C0
F001C0
F001C0
ENDCHAR
STARTCHAR 004E
ENCODING 78
SWIDTH 660 0
DWIDTH 22 0
BBX 18 26 0 0
BITMAP
F001C0
F001C0
F801C0
FC01C0
FC01C0
FE01C0
FE01C0
FF01C0
FF81C0
F781C0
F7C1C0
F3C1C0
F1E1C0
F1F1C0
F0F1C0
F0F9C0
F079C0
F03DC0
F03DC0
F01FC0
F01FC0
F00FC0
F007C0
F007C0
F003C0
F003C0
ENDCHAR
STARTCHAR 004F
ENCODING 79
SWIDTH 660 0
DWIDTH 22 0
BBX 18 26 0 0
BITMAP
07FC00
1FFE00
3FFF00
7FFF80
7C07C0
F003C0
F003C0
F001C0
F001C0
F001C0
F001C0
F001C0
F001C0
F001C0
F001C0
F001C0
F001C0
F001C0
F001C0
F003C0
F003C0
7807C0
7FFF80
3FFF00
1FFE00
07FC00
ENDCHAR
STARTCHAR 0050
ENCODING 80
SWIDTH 660 0
DWIDTH 22 0
BBX 18 26 0 0
BITMAP
FFFC00
FFFE00
FFFF00
FFFF80
F007C0
F003C0
F003C0
F001C0
F003C0
F003C0
F007C0
FFFF80
FFFF00
FFFE00
FFFC00
F00000
F00000
F00000
F00000
F00000
F00000
F00000
F00000
F00000
F00000
F00000
ENDCHAR
STARTCHAR 0051
ENCODING 81
SWIDTH 660 0
DWIDTH 22 0
BBX 19 30 0 -4
BITMAP
07FC00
1FFE00
3FFF00
7FFF80
7C07C0
F003C0
F003C0
F001C0
F001C0
F001C0
F001C0
F001C0
F001C0
F001C0
F001C0
F001C0
F001C0
F001C0
F041C0
F0E3C0
F1F3C0
78FFC0
7FFF80
3FFF00
1FFF00
07FF80
0007C0
0003E0
0001C0
000080
ENDCHAR
STARTCHAR 0052
ENCODING 82
SWIDTH 660 0
DWIDTH 22 0
BBX 18 26 0 0
BITMAP
FFFC00
FFFE00
FFFF00
FFFF80
F007C0
F003C0
F003C0
F001C0
F003C0
F003C0
F007C0
FFFF80
FFFF00
FFFF00
FFFF80
F007C0
F003C0
F003C0
F001C0
F001C0
F001C0
F001C0
F001C0
F001C0
F001C0
F001C0
ENDCHAR
STARTCHAR 0053
ENCODING 83
SWIDTH 660 0
DWIDTH 22 0
BBX 18 26 0 0
BITMAP
07F800
1FFE00
3FFF00
7FFF80
7807C0
F003C0
F003C0
F001C0
F00000
F00000
780000
7FFC00
3FFE00
1FFF00
07FF80
0007C0
0003C0
0003C0
F001C0
F003C0
F003C0
7807C0
7FFF80
3FFF00
1FFE00
07FC00
ENDCHAR
STARTCHAR 0054
ENCODING 84
SWIDTH 660 0
DWIDTH 22 0
BBX 18 26 0 0
BITMAP
FFFFC0
FFFFC0
FFFFC0
FFFFC0
01E000
01E000
01E000
01E000
01E000
01E000
01E000
01E000
01E000
01E000
01E000
01E000
01E000
01E000
01E000
01E000
01E000
01E000
01E000
01E000
01E000
01E000
ENDCHAR
STARTCHAR 0055
ENCODING 85
SWIDTH 660 0
DWIDTH 22 0
BBX 18 26 0 0
BITMAP
F001C0
F001C0
F001C0
F001C0
F001C0
F001C0
F001C0
F001C0
F001C0
F001C0
F001C0
F001C0
F001C0
F001C0
F001C0
F001C0
F001C0
F001C0
F001C0
F003C0
F003C0
7807C0
7FFF80
3FFF00
1FFE00
07FC00
ENDCHAR
STARTCHAR 0056
ENCODING 86
SWIDTH 660 0
DWIDTH 22 0
BBX 18 26 0 0
BITMAP
F003C0
F003C0
7003C0
780380
780780
780780
3C0780
3C0F00
3C0F00
1C0F00
1E0E00
1E1E00
1E1E00
0F1E00
0F3C00
0F3C00
073C00
07B800
07F800
07F800
03F800
03F000
03F000
01F000
01E000
01E000
ENDCHAR
STARTCHAR 0057
ENCODING 87
SWIDTH 660 0
DWIDTH 22 0
BBX 18 26 0 0
BITMAP
F001C0
F001C0
F001C0
F001C0
F001C0
F001C0
F001C0
F001C0
F001C0
F001C0
F001C0
F1E1C0
F1E1C0
F1E1C0
F1E1C0
F1E1C0
F1E1C0
F1E1C0
F1E1C0
F1E1C0
F1E3C0
71F3C0
7FFF80
3FFF80
3F3F00
0E1E00
ENDCHAR
STARTCHAR 0058
ENCODING 88
SWIDTH 660 0
DWIDTH 22 0
BBX 18 26 0 0
BITMAP
F003C0
7807C0
780780
3C0F80
3C0F00
1E1E00
1F1E00
0F3C00
0FBC00
07F800
03F800
03F000
01F000
01E000
03F000
03F800
07F800
07FC00
0F3C00
0F1E00
1E1E00
3E0F00
3C0F00
7C0780
7807C0
F003C0
ENDCHAR
STARTCHAR 0059
ENCODING 89
SWIDTH 660 0
DWIDTH 22 0
BBX 18 26 0 0
BITMAP
F003C0
7807C0
780780
3C0F80
3E0F00
1E1E00
0F1E00
0F3C00
07FC00
07F800
03F800
03F000
01E000
01E000
01E000
01E000
01E000
01E000
01E000
01E000
01E000
01E000
01E000
01E000
01E000
01E000
ENDCHAR
STARTCHAR 005A
ENCODING 90
SWIDTH 660 0
DWIDTH 22 0
BBX 18 26 0 0
BITMAP
FFFFC0
FFFFC0
FFFFC0
FFFFC0
0001C0
0003C0
0007C0
000F80
001F00
003E00
007C00
00F800
01F000
03E000
07C000
0F8000
1F0000
3E0000
7C0000
F80000
F00000
F00000
FFFFC0
FFFFC0
FFFFC0
FFFFC0
ENDCHAR
STARTCHAR 005B
ENCODING 91
SWIDTH 660 0
DWIDTH 22 0
BBX 8 34 7 -4
BITMAP
FF
FF
FF
FF
F0
F0
F0
F0
F0
F0
F0
F0
F0
F0
F0
F0
F0
F0
F0
F0
F0
F0
F0
F0
F0
F0
F0
F0
F0
F0
FF
FF
FF
FF
ENDCHAR
STARTCHAR 005C
ENCODING 92
SWIDTH 660 0
DWIDTH 22 0
BBX 19 33 2 -4
BITMAP
600000
F00000
F00000
780000
780000
3C0000
3C0000
1E0000
1E0000
0F0000
0F0000
078000
078000
03C000
03C000
01E000
01F000
00F000
00F800
007800
007C00
003C00
003E00
001E00
001F00
000F00
000F80
000780
0003C0
0003C0
0001E0
0001C0
000100
ENDCHAR
STARTCHAR 005D
ENCODING 93
SWIDTH 660 0
DWIDTH 22 0
BBX 7 34 4 -4
BITMAP
FE
FE
FE
FE
1E
1E
1E
1E
1E
1E
1E
1E
1E
1E
1E
1E
1E
1E
1E
1E
1E
1E
1E
1E
1E
1E
1E
1E
1E
1E
FE
FE
FE
FE
ENDCHAR
STARTCHAR 005E
ENCODING 94
SWIDTH 660 0
DWIDTH 22 0
BBX 20 12 0 14
BITMAP
004000
00E000
01F000
03F800
07FC00
0FBE00
1F1F00
3E0F80
7C07E0
F803F0
7001C0
200080
ENDCHAR
STARTCHAR 005F
ENCODING 95
SWIDTH 660 0
DWIDTH 22 0
BBX 22 4 0 -7
BITMAP
FFFFFC
FFFFFC
FFFFFC
FFFFFC
ENDCHAR
STARTCHAR 0060
ENCODING 96
SWIDTH 660 0
DWIDTH 22 0
BBX 8 8 3 21
BITMAP
20
70
F8
7C
3E
1F
0F
04
ENDCHAR
STARTCHAR 0061
ENCODING 97
SWIDTH 660 0
DWIDTH 22 0
BBX 18 18 0 0
BITMAP
3FFC00
3FFF00
3FFF80
000F80
0003C0
0003C0
0001C0
1FFFC0
7FFFC0
7FFFC0
FFFFC0
F001C0
F001C0
F001C0
FFFFC0
7FFFC0
7FFFC0
1FFFC0
ENDCHAR
STARTCHAR 0062
ENCODING 98
SWIDTH 660 0
DWIDTH 22 0
BBX 18 26 0 0
BITMAP
F00000
F00000
F00000
F00000
F00000
F00000
F00000
FFFC00
FFFE00
FFFF00
FFFF80
F007C0
F003C0
F003C0
F001C0
F001C0
F001C0
F001C0
F001C0
F003C0
F003C0
F007C0
FFFF80
FFFF00
FFFE00
FFFC00
ENDCHAR
STARTCHAR 0063
ENCODING 99
SWIDTH 660 0
DWIDTH 22 0
BBX 18 18 0 0
BITMAP
0FFC00
1FFF00
3FFF80
7C0F80
F803C0
F003C0
F001C0
F00000
F00000
F00000
F00000
F001C0
F003C0
7807C0
7FFF80
3FFF80
1FFE00
07FC00
ENDCHAR
STARTCHAR 0064
ENCODING 100
SWIDTH 660 0
DWIDTH 22 0
BBX 18 26 0 0
BITMAP
0001C0
0001C0
0001C0
0001C0
0001C0
0001C0
0001C0
07FFC0
1FFFC0
3FFFC0
7FFFC0
7C01C0
F001C0
F001C0
F001C0
F001C0
F001C0
F001C0
F001C0
F001C0
F001C0
7801C0
7FFFC0
3FFFC0
1FFFC0
07FFC0
ENDCHAR
STARTCHAR 0065
ENCODING 101
SWIDTH 660 0
DWIDTH 22 0
BBX 18 18 0 0
BITMAP
0FFC00
1FFF00
3FFF80
7C0F80
F803C0
F003C0
F001C0
FFFFC0
FFFFC0
FFFFC0
FFFFC0
F00000
F00000
780000
7FFF80
3FFF80
1FFF80
07FF80
ENDCHAR
STARTCHAR 0066
ENCODING 102
SWIDTH 660 0
DWIDTH 22 0
BBX 14 26 4 0
BITMAP
03FC
0FFC
0FFC
1FFC
1E00
1E00
1E00
1E00
FFE0
FFE0
FFE0
1E00
1E00
1E00
1E00
1E00
1E00
1E00
1E00
1E00
1E00
1E00
FFE0
FFE0
FFE0
FFE0
ENDCHAR
STARTCHAR 0067
ENCODING 103
SWIDTH 660 0
DWIDTH 22 0
BBX 18 26 0 -7
BITMAP
07FFC0
1FFFC0
3FFFC0
7FFFC0
7C01C0
F001C0
F001C0
F001C0
F001C0
F001C0
F001C0
F001C0
F001C0
F001C0
7801C0
7FFFC0
3FFFC0
1FFFC0
07FFC0
0001C0
0003C0
0007C0
0FFF80
0FFF00
0FFE00
0FFC00
ENDCHAR
STARTCHAR 0068
ENCODING 104
SWIDTH 660 0
DWIDTH 22 0
BBX 18 26 0 0
BITMAP
F00000
F00000
F00000
F00000
F00000
F00000
F00000
FFFC00
FFFE00
FFFF00
FFFF80
F007C0
F003C0
F003C0
F001C0
F001C0
F001C0
F001C0
F001C0
F001C0
F001C0
F001C0
F001C0
F001C0
F001C0
F001C0
ENDCHAR
STARTCHAR 0069
ENCODING 105
SWIDTH 660 0
DWIDTH 22 0
BBX 11 26 4 0
BITMAP
0C00
1E00
1E00
0C00
0000
0000
0000
0000
FE00
FE00
FE00
1E00
1E00
1E00
1E00
1E00
1E00
1E00
1E00
1E00
1E00
1E00
FFE0
FFE0
FFE0
FFE0
ENDCHAR
STARTCHAR 006A
ENCODING 106
SWIDTH 660 0
DWIDTH 22 0
BBX 11 33 0 -7
BITMAP
00C0
01E0
01E0
00C0
0000
0000
0000
0000
FFE0
FFE0
FFE0
01E0
01E0
01E0
01E0
01E0
01E0
01E0
01E0
01E0
01E0
01E0
01E0
01E0
01E0
01E0
01E0
01E0
03E0
0FC0
FF80
FF00
FE00
ENDCHAR
STARTCHAR 006B
ENCODING 107
SWIDTH 660 0
DWIDTH 22 0
BBX 18 26 0 0
BITMAP
F00000
F00000
F00000
F00000
F00000
F00000
F00000
F00F80
F01F00
F03E00
F07C00
F0F800
F1F000
F3E000
F7C000
FFC000
FFE000
FFF000
FCF800
F87C00
F03E00
F01F00
F00F80
F007C0
F003C0
F001C0
ENDCHAR
STARTCHAR 006C
ENCODING 108
SWIDTH 660 0
DWIDTH 22 0
BBX 15 26 2 0
BITMAP
FF80
FF80
FF80
FF80
0780
0780
0780
0780
0780
0780
0780
0780
0780
0780
0780
0780
0780
0780
0780
0780
0780
0780
FFFE
FFFE
FFFE
FFFE
ENDCHAR
STARTCHAR 006D
ENCODING 109
SWIDTH 660 0
DWIDTH 22 0
BBX 18 18 0 0
BITMAP
FFFF80
FFFFC0
FFFFC0
F1E7C0
F1E1C0
F1E1C0
F1E1C0
F1E1C0
F1E1C0
F1E1C0
F1E1C0
F1E1C0
F1E1C0
F1E1C0
F1E1C0
F1E1C0
F1E1C0
F1E1C0
ENDCHAR
STARTCHAR 006E
ENCODING 110
SWIDTH 660 0
DWIDTH 22 0
BBX 18 18 0 0
BITMAP
FFFC00
FFFF00
FFFF80
FE0F80
F803C0
F003C0
F001C0
F001C0
F001C0
F001C0
F001C0
F001C0
F001C0
F001C0
F001C0
F001C0
F001C0
F001C0
ENDCHAR
STARTCHAR 006F
ENCODING 111
SWIDTH 660 0
DWIDTH 22 0
BBX 18 19 0 0
BITMAP
07FC00
1FFE00
3FFF00
7FFF80
7C07C0
F003C0
F003C0
F001C0
F001C0
F001C0
F001C0
F001C0
F003C0
F003C0
7807C0
7FFF80
3FFF00
1FFE00
07FC00
ENDCHAR
STARTCHAR 0070
ENCODING 112
SWIDTH 660 0
DWIDTH 22 0
BBX 18 26 0 -7
BITMAP
FFFC00
FFFE00
FFFF00
FFFF80
F007C0
F003C0
F003C0
F001C0
F001C0
F001C0
F001C0
F001C0
F003C0
F003C0
F007C0
FFFF80
FFFF00
FFFE00
FFFC00
F00000
F00000
F00000
F00000
F00000
F00000
F00000
ENDCHAR
STARTCHAR 0071
ENCODING 113
SWIDTH 660 0
DWIDTH 22 0
BBX 18 26 0 -7
BITMAP
07FFC0
1FFFC0
3FFFC0
7FFFC0
7C01C0
F001C0
F001C0
F001C0
F001C0
F001C0
F001C0
F001C0
F001C0
F001C0
7801C0
7FFFC0
3FFFC0
1FFFC0
07FFC0
0001C0
0001C0
0001C0
0001C0
0001C0
0001C0
0001C0
ENDCHAR
STARTCHAR 0072
ENCODING 114
SWIDTH 660 0
DWIDTH 22 0
BBX 18 18 0 0
BITMAP
FFFF00
FFFF80
FFFFC0
FC07C0
F001C0
F001C0
F001C0
F00000
F00000
F00000
F00000
F00000
F00000
F00000
F00000
F00000
F00000
F00000
ENDCHAR
STARTCHAR 0073
ENCODING 115
SWIDTH 660 0
DWIDTH 22 0
BBX 18 18 0 0
BITMAP
3FFF80
7FFF80
FFFF80
F00000
F00000
F00000
F00000
FFFF00
7FFF80
3FFFC0
0FFFC0
0001C0
0001C0
0001C0
3FFFC0
3FFFC0
3FFF80
3FFF00
ENDCHAR
STARTCHAR 0074
ENCODING 116
SWIDTH 660 0
DWIDTH 22 0
BBX 14 26 4 0
BITMAP
1E00
1E00
1E00
1E00
1E00
1E00
1E00
1E00
FFFC
FFFC
FFFC
1E00
1E00
1E00
1E00
1E00
1E00
1E00
1E00
1E00
0E00
0F00
0FFC
07FC
03FC
00FC
ENDCHAR
STARTCHAR 0075
ENCODING 117
SWIDTH 660 0
DWIDTH 22 0
BBX 18 18 0 0
BITMAP
F001C0
F001C0
F001C0
F001C0
F001C0
F001C0
F001C0
F001C0
F001C0
F001C0
F001C0
F001C0
F003C0
7803C0
7FFFC0
3FFFC0
1FFFC0
07FDC0
ENDCHAR
STARTCHAR 0076
ENCODING 118
SWIDTH 660 0
DWIDTH 22 0
BBX 18 18 0 0
BITMAP
F003C0
7803C0
780780
380780
3C0F00
3C0F00
1E0F00
1E1E00
0E1E00
0F3C00
0F3C00
07BC00
07F800
03F800
03F000
03F000
01F000
01E000
ENDCHAR
STARTCHAR 0077
ENCODING 119
SWIDTH 660 0
DWIDTH 22 0
BBX 18 18 0 0
BITMAP
F1E1C0
F1E1C0
F1E1C0
F1E1C0
F1E1C0
F1E1C0
F1E1C0
F1E1C0
F1E1C0
F1E1C0
F1E1C0
F1E1C0
F1E3C0
71F3C0
7FFF80
3FFF80
3F3F00
0E1E00
ENDCHAR
STARTCHAR 0078
ENCODING 120
SWIDTH 660 0
DWIDTH 22 0
BBX 18 18 0 0
BITMAP
F807C0
7C0F80
3E0F00
1E1E00
0F3E00
0FFC00
07F800
03F000
01F000
03F000
03F800
07F800
0FBC00
1F3E00
1E1F00
3C0F00
7C0780
F807C0
ENDCHAR
STARTCHAR 0079
ENCODING 121
SWIDTH 660 0
DWIDTH 22 0
BBX 18 25 0 -7
BITMAP
F001C0
F001C0
F001C0
F001C0
F001C0
F001C0
F001C0
F001C0
F001C0
F001C0
F001C0
F001C0
F001C0
7801C0
7FFFC0
3FFFC0
1FFFC0
07FFC0
0001C0
0003C0
0007C0
0FFF80
0FFF80
0FFE00
0FFC00
ENDCHAR
STARTCHAR 007A
ENCODING 122
SWIDTH 660 0
DWIDTH 22 0
BBX 18 19 0 0
BITMAP
FFFFC0
FFFFC0
FFFFC0
FFFF80
000F00
001E00
003E00
007C00
00F800
01F000
03E000
07C000
0F8000
1F0000
3E0000
7FFFC0
FFFFC0
FFFFC0
FFFFC0
ENDCHAR
STARTCHAR 007B
ENCODING 123
SWIDTH 660 0
DWIDTH 22 0
BBX 11 33 4 -4
BITMAP
01E0
03E0
07E0
0FC0
0F00
1E00
1E00
1E00
1E00
1E00
1E00
1E00
1E00
3E00
FC00
F800
F000
FC00
7E00
1E00
1E00
1E00
1E00
1E00
1E00
1E00
1E00
1F00
0F80
0FE0
07E0
03E0
0020
ENDCHAR
STARTCHAR 007C
ENCODING 124
SWIDTH 660 0
DWIDTH 22 0
BBX 4 33 7 -4
BITMAP
F0
F0
F0
F0
F0
F0
F0
F0
F0
F0
F0
F0
F0
F0
F0
F0
F0
F0
F0
F0
F0
F0
F0
F0
F0
F0
F0
F0
F0
F0
F0
F0
F0
ENDCHAR
STARTCHAR 007D
ENCODING 125
SWIDTH 660 0
DWIDTH 22 0
BBX 11 33 4 -4
BITMAP
E000
F800
FC00
7C00
3E00
1E00
1E00
1E00
1E00
1E00
1E00
1E00
1E00
0F00
0FE0
07E0
03E0
0FE0
0F80
1F00
1E00
1E00
1E00
1E00
1E00
1E00
1E00
1E00
7E00
FC00
F800
F000
8000
ENDCHAR
STARTCHAR 007E
ENCODING 126
SWIDTH 660 0
DWIDTH 22 0
BBX 18 8 0 11
BITMAP
1F01C0
3F81C0
7FC1C0
FFE3C0
F1FFC0
F0FF80
F07F00
F01E00
ENDCHAR
STARTCHAR 00A0
ENCODING 160
SWIDTH 660 0
DWIDTH 22 0
BBX 0 0 0 0
BITMAP
ENDCHAR
STARTCHAR 00A1
ENCODING 161
SWIDTH 660 0
DWIDTH 22 0
BBX 4 26 11 0
BITMAP
60
F0
F0
60
00
00
00
00
F0
F0
F0
F0
F0
F0
F0
F0
F0
F0
F0
F0
F0
F0
F0
F0
F0
F0
ENDCHAR
STARTCHAR 00A2
ENCODING 162
SWIDTH 660 0
DWIDTH 22 0
BBX 18 26 0 -4
BITMAP
01E000
01E000
01E000
07F800
1FFE00
3FFF00
7FFF80
7DE7C0
F1E3C0
F1E3C0
F1E1C0
F1E000
F1E000
F1E000
F1E000
F1E000
F1E000
79E000
7FFFC0
3FFFC0
1FFFC0
07FFC0
01E000
01E000
01E000
01E000
ENDCHAR
STARTCHAR 00A3
ENCODING 163
SWIDTH 660 0
DWIDTH 22 0
BBX 18 30 0 0
BITMAP
07C000
1FF000
3FF800
7FF800
787C00
F03C00
F01E00
F01E00
F00000
F00000
F00000
FFE000
FFE000
FFE000
FFE000
F00000
F00000
F00000
F00000
F00000
F00000
F00000
F001C0
F003C0
F003C0
F007C0
FFFF80
FFFF00
FFFE00
FFF800
ENDCHAR
STARTCHAR 00A4
ENCODING 164
SWIDTH 660 0
DWIDTH 22 0
BBX 18 18 0 0
BITMAP
200100
700380
F807C0
7C0F80
3FFF00
1FFE00
0FFC00
0F3C00
0E1E00
0E1E00
0F3C00
0FFC00
1FFE00
3FFF00
7C0F80
F807C0
700380
200100
ENDCHAR
STARTCHAR 00A5
ENCODING 165
SWIDTH 660 0
DWIDTH 22 0
BBX 20 26 0 0
BITMAP
200040
7000E0
F801F0
7C03C0
3E0780
1F0F00
0F9E00
67FFE0
7FFFE0
7FFFE0
7FFFE0
00F000
00F000
00F000
00F000
7FFFE0
7FFFE0
7FFFE0
7FFFE0
00F000
00F000
00F000
00F000
00F000
00F000
00F000
ENDCHAR
STARTCHAR 00A6
ENCODING 166
SWIDTH 660 0
DWIDTH 22 0
BBX 4 33 7 -4
BITMAP
F0
F0
F0
F0
F0
F0
F0
F0
F0
F0
F0
F0
F0
F0
F0
00
00
00
F0
F0
F0
F0
F0
F0
F0
F0
F0
F0
F0
F0
F0
F0
F0
ENDCHAR
STARTCHAR 00A7
ENCODING 167
SWIDTH 660 0
DWIDTH 22 0
BBX 18 37 0 -4
BITMAP
07FC00
0FFE00
1FFF00
3FFF80
7C07C0
7803C0
7803C0
7C01C0
3E01C0
1F01C0
0F81C0
F7C000
F3E000
F1F000
F0F800
F07C00
F03E00
F81F00
7C0F80
3E07C0
1F03C0
0F81C0
07C1C0
03E1C0
01F1C0
00F9C0
F07C00
F03E00
F01F00
F00F80
F00780
F00780
780780
7FFF00
3FFF00
1FFE00
07F800
ENDCHAR
STARTCHAR 00A8
ENCODING 168
SWIDTH 660 0
DWIDTH 22 0
BBX 11 4 4 22
BITMAP
E0C0
E1E0
E1E0
E0C0
ENDCHAR
STARTCHAR 00A9
ENCODING 169
SWIDTH 660 0
DWIDTH 22 0
BBX 18 26 0 0
BITMAP
3F8000
FFF000
FFF800
FFFC00
E0FE00
801F00
000F80
1FE780
3FE7C0
7FE3C0
FFE3C0
F001C0
F001C0
F001C0
F001C0
FFE3C0
7FE3C0
3FE7C0
1FE780
000F80
801F00
C07E00
FFFC00
FFF800
FFF000
3F8000
ENDCHAR
STARTCHAR 00AA
ENCODING 170
SWIDTH 660 0
DWIDTH 22 0
BBX 14 22 4 11
BITMAP
0FFC
1FFC
3FFC
7FFC
F81C
F01C
E01C
E01C
E01C
F01C
F81C
7FFC
3FFC
1FFC
0FFC
0000
0000
0000
FFFC
FFFC
FFFC
FFFC
ENDCHAR
STARTCHAR 00AB
ENCODING 171
SWIDTH 660 0
DWIDTH 22 0
BBX 18 17 0 -1
BITMAP
180300
1E03C0
1E03C0
3C0780
3C0780
780F00
780F00
F01E00
F01E00
F01E00
780F00
780F00
3C0780
3C0780
1C0380
1E03C0
180300
ENDCHAR
STARTCHAR 00AC
ENCODING 172
SWIDTH 660 0
DWIDTH 22 0
BBX 18 11 0 4
BITMAP
FFFFC0
FFFFC0
FFFFC0
FFFFC0
0001C0
0001C0
0001C0
0001C0
0001C0
0001C0
0001C0
ENDCHAR
STARTCHAR 00AD
ENCODING 173
SWIDTH 660 0
DWIDTH 22 0
BBX 18 4 0 11
BITMAP
FFFFC0
FFFFC0
FFFFC0
FFFFC0
ENDCHAR
STARTCHAR 00AE
ENCODING 174
SWIDTH 660 0
DWIDTH 22 0
BBX 18 22 0 4
BITMAP
3F8000
FFF000
FFF800
FFFC00
E07E00
801F00
000F80
FF0780
FF83C0
FFC3C0
FFE3C0
F1E1C0
F1E1C0
F1E1C0
F3E1C0
FFC3C0
FF83C0
FF8FC0
F7FFC0
F3FF80
F1FF00
F0FC00
ENDCHAR
STARTCHAR 00AF
ENCODING 175
SWIDTH 660 0
DWIDTH 22 0
BBX 11 4 4 22
BITMAP
FFE0
FFE0
FFE0
FFE0
ENDCHAR
STARTCHAR 00B0
ENCODING 176
SWIDTH 660 0
DWIDTH 22 0
BBX 14 15 4 15
BITMAP
0FC0
1FE0
3FF0
7FF8
F87C
F03C
E03C
E01C
E03C
F03C
F87C
7FF8
3FF0
1FE0
0FC0
ENDCHAR
STARTCHAR 00B1
ENCODING 177
SWIDTH 660 0
DWIDTH 22 0
BBX 18 22 0 0
BITMAP
01E000
01E000
01E000
01E000
01E000
01E000
01E000
FFFFC0
FFFFC0
FFFFC0
FFFFC0
01E000
01E000
01E000
01E000
01E000
01E000
01E000
FFFFC0
FFFFC0
FFFFC0
FFFFC0
ENDCHAR
STARTCHAR 00B2
ENCODING 178
SWIDTH 660 0
DWIDTH 22 0
BBX 9 13 6 20
BITMAP
7E00
FF00
C300
8180
0180
0300
0600
0C00
1800
3000
6000
FF80
FF80
ENDCHAR
STARTCHAR 00B3
ENCODING 179
SWIDTH 660 0
DWIDTH 22 0
BBX 9 13 6 20
BITMAP
7E00
FF00
C380
8180
0300
1F00
1F00
0300
0180
8180
C300
FF00
7E00
ENDCHAR
STARTCHAR 00B4
ENCODING 180
SWIDTH 660 0
DWIDTH 22 0
BBX 9 8 7 22
BITMAP
0600
0F00
1F80
3E00
7C00
F800
7000
2000
ENDCHAR
STARTCHAR 00B5
ENCODING 181
SWIDTH 660 0
DWIDTH 22 0
BBX 18 25 0 -7
BITMAP
F01E00
F01E00
F01E00
F01E00
F01E00
F01E00
F01E00
F01E00
F01E00
F01E00
F01E00
F01E00
F03E00
F07F00
FFFFC0
FFFFC0
FFF3C0
FFC0C0
F00000
F00000
F00000
F00000
F00000
F00000
F00000
ENDCHAR
STARTCHAR 00B6
ENCODING 182
SWIDTH 660 0
DWIDTH 22 0
BBX 18 30 0 0
BITMAP
03FFC0
0FFFC0
1FFFC0
3FFFC0
7FE1C0
7DE1C0
F9E1C0
F1E1C0
F1E1C0
F1E1C0
F1E1C0
F1E1C0
F1E1C0
79E1C0
7DE1C0
3FFFC0
1FFFC0
07FFC0
01FFC0
01E1C0
01E1C0
01E1C0
01E1C0
01E1C0
01E1C0
01E1C0
01E1C0
01E1C0
01E1C0
01E1C0
ENDCHAR
STARTCHAR 00B7
ENCODING 183
SWIDTH 660 0
DWIDTH 22 0
BBX 8 8 7 8
BITMAP
3C
7E
7E
FF
FF
7E
7E
3C
ENDCHAR
STARTCHAR 00B8
ENCODING 184
SWIDTH 660 0
DWIDTH 22 0
BBX 8 11 3 -7
BITMAP
7F
7F
7F
7F
0F
1F
3E
7C
F8
70
20
ENDCHAR
STARTCHAR 00B9
ENCODING 185
SWIDTH 660 0
DWIDTH 22 0
BBX 9 13 6 20
BITMAP
1800
3800
F800
F800
1800
1800
1800
1800
1800
1800
1800
FF80
FF80
ENDCHAR
STARTCHAR 00BA
ENCODING 186
SWIDTH 660 0
DWIDTH 22 0
BBX 14 22 4 11
BITMAP
0FC0
1FE0
3FF0
7FF8
F87C
F03C
E03C
E01C
E03C
F03C
F87C
7FF8
3FF0
1FE0
0FC0
0000
0000
0000
FFFC
FFFC
FFFC
FFFC
ENDCHAR
STARTCHAR 00BB
ENCODING 187
SWIDTH 660 0
DWIDTH 22 0
BBX 18 17 0 -1
BITMAP
100200
F01E00
780F00
780F00
3C0780
3C0780
1C0380
1E03C0
1E03C0
1E03C0
1C0380
3C0780
3C0780
780F00
780F00
F01E00
100200
ENDCHAR
STARTCHAR 00BC
ENCODING 188
SWIDTH 660 0
DWIDTH 22 0
BBX 22 33 0 0
BITMAP
060000
060000
1E0000
1E0000
060000
060000
060000
060000
060008
06001C
060038
3FE070
3FE0E0
0001C0
000380
000700
000E00
001C00
003800
007000
00E0C0
01C1C0
0383C0
0707C0
0E0EC0
1C1CC0
3818C0
701FF0
E01FF0
4000C0
0000C0
0001F0
0001F0
ENDCHAR
STARTCHAR 00BD
ENCODING 189
SWIDTH 660 0
DWIDTH 22 0
BBX 22 33 0 0
BITMAP
060000
060000
1E0000
1E0000
060000
060000
060000
060000
060008
06001C
060038
3FE070
3FE0E0
0001C0
000380
000700
000E00
001C00
003800
007000
00E7C0
01CFE0
039830
071830
0E0030
1C0070
3800E0
7001C0
E00380
400700
000E00
001FF0
001FF0
ENDCHAR
STARTCHAR 00BE
ENCODING 190
SWIDTH 660 0
DWIDTH 22 0
BBX 22 33 0 0
BITMAP
0F8000
1FC000
306000
306000
006000
07C000
07C000
006000
006008
30601C
306038
1FC070
0F80E0
0001C0
000380
000700
000E00
001C00
003800
007000
00E0C0
01C1C0
0383C0
0707C0
0E0EC0
1C1CC0
3818C0
701FF0
E01FF0
4000C0
0000C0
0001F0
0001F0
ENDCHAR
STARTCHAR 00BF
ENCODING 191
SWIDTH 660 0
DWIDTH 22 0
BBX 18 26 0 0
BITMAP
00C000
01E000
01E000
00C000
000000
000000
000000
00E000
01E000
03E000
07C000
0F8000
1F0000
3E0000
7C0000
780000
F00000
F00000
F001C0
F003C0
F003C0
7807C0
7FFF80
3FFF00
1FFE00
07FC00
ENDCHAR
STARTCHAR 00C0
ENCODING 192
SWIDTH 660 0
DWIDTH 22 0
BBX 18 33 0 0
BITMAP
040000
0E0000
1F0000
0F8000
07C000
03E000
01E000
03F800
1FFE00
3FFF00
7FFF80
7C07C0
F003C0
F003C0
F001C0
F001C0
F001C0
F001C0
F001C0
F001C0
F001C0
F001C0
FFFFC0
FFFFC0
FFFFC0
FFFFC0
F001C0
F001C0
F001C0
F001C0
F001C0
F001C0
F001C0
ENDCHAR
STARTCHAR 00C1
ENCODING 193
SWIDTH 660 0
DWIDTH 22 0
BBX 18 33 0 0
BITMAP
000800
001C00
003E00
007C00
00F800
01F000
01E000
03F800
1FFE00
3FFF00
7FFF80
7C07C0
F003C0
F003C0
F001C0
F001C0
F001C0
F001C0
F001C0
F001C0
F001C0
F001C0
FFFFC0
FFFFC0
FFFFC0
FFFFC0
F001C0
F001C0
F001C0
F001C0
F001C0
F001C0
F001C0
ENDCHAR
STARTCHAR 00C2
ENCODING 194
SWIDTH 660 0
DWIDTH 22 0
BBX 18 33 0 0
BITMAP
00C000
03F000
0FFC00
3FFF00
3F1F80
1C0700
100200
03F800
1FFE00
3FFF00
7FFF80
7C07C0
F003C0
F003C0
F001C0
F001C0
F001C0
F001C0
F001C0
F001C0
F001C0
F001C0
FFFFC0
FFFFC0
FFFFC0
FFFFC0
F001C0
F001C0
F001C0
F001C0
F001C0
F001C0
F001C0
ENDCHAR
STARTCHAR 00C3
ENCODING 195
SWIDTH 660 0
DWIDTH 22 0
BBX 18 33 0 0
BITMAP
1F01C0
3F81C0
7FC1C0
FFF3C0
F1FFC0
F07F80
F03F00
03F800
1FFE00
3FFF00
7FFF80
7C07C0
F003C0
F003C0
F001C0
F001C0
F001C0
F001C0
F001C0
F001C0
F001C0
F001C0
FFFFC0
FFFFC0
FFFFC0
FFFFC0
F001C0
F001C0
F001C0
F001C0
F001C0
F001C0
F001C0
ENDCHAR
STARTCHAR 00C4
ENCODING 196
SWIDTH 660 0
DWIDTH 22 0
BBX 18 33 0 0
BITMAP
0E0C00
0E1E00
0E1E00
040C00
000000
000000
000000
03F800
1FFE00
3FFF00
7FFF80
7C07C0
F003C0
F003C0
F001C0
F001C0
F001C0
F001C0
F001C0
F001C0
F001C0
F001C0
FFFFC0
FFFFC0
FFFFC0
FFFFC0
F001C0
F001C0
F001C0
F001C0
F001C0
F001C0
F001C0
ENDCHAR
STARTCHAR 00C5
ENCODING 197
SWIDTH 660 0
DWIDTH 22 0
BBX 18 33 0 0
BITMAP
01E000
07F800
07FC00
0FFC00
0F1E00
0E1E00
0F1E00
0FFC00
1FFE00
3FFF00
7FFF80
7C07C0
F003C0
F003C0
F001C0
F001C0
F001C0
F001C0
F001C0
F001C0
F001C0
F001C0
FFFFC0
FFFFC0
FFFFC0
FFFFC0
F001C0
F001C0
F001C0
F001C0
F001C0
F001C0
F001C0
ENDCHAR
STARTCHAR 00C6
ENCODING 198
SWIDTH 660 0
DWIDTH 22 0
BBX 18 26 0 0
BITMAP
07FFC0
1FFFC0
3FFFC0
7FFFC0
79E000
F1E000
F1E000
F1E000
F1E000
F1E000
F1E000
FFFE00
FFFE00
FFFE00
FFFE00
F1E000
F1E000
F1E000
F1E000
F1E000
F1E000
F1E000
F1FFC0
F1FFC0
F1FFC0
F1FFC0
ENDCHAR
STARTCHAR 00C7
ENCODING 199
SWIDTH 660 0
DWIDTH 22 0
BBX 18 33 0 -7
BITMAP
07F800
1FFE00
3FFF00
7FFF80
7C07C0
F003C0
F003C0
F001C0
F00000
F00000
F00000
F00000
F00000
F00000
F00000
F00000
F00000
F00000
F001C0
F003C0
F003C0
7807C0
7FFF80
3FFF00
1FFE00
07FC00
01E000
03F000
07C000
0F8000
1F0000
0E0000
040000
ENDCHAR
STARTCHAR 00C8
ENCODING 200
SWIDTH 660 0
DWIDTH 22 0
BBX 18 33 0 0
BITMAP
040000
0E0000
1F0000
0F8000
07C000
03E000
01E000
FFFFC0
FFFFC0
FFFFC0
FFFFC0
F00000
F00000
F00000
F00000
F00000
F00000
F00000
FFFE00
FFFE00
FFFE00
FFFE00
F00000
F00000
F00000
F00000
F00000
F00000
F00000
FFFFC0
FFFFC0
FFFFC0
FFFFC0
ENDCHAR
STARTCHAR 00C9
ENCODING 201
SWIDTH 660 0
DWIDTH 22 0
BBX 18 33 0 0
BITMAP
000800
001C00
003E00
007C00
00F800
01F000
00E000
FFFFC0
FFFFC0
FFFFC0
FFFFC0
F00000
F00000
F00000
F00000
F00000
F00000
F00000
FFFE00
FFFE00
FFFE00
FFFE00
F00000
F00000
F00000
F00000
F00000
F00000
F00000
FFFFC0
FFFFC0
FFFFC0
FFFFC0
ENDCHAR
STARTCHAR 00CA
ENCODING 202
SWIDTH 660 0
DWIDTH 22 0
BBX 18 33 0 0
BITMAP
004000
00E000
01F000
07F800
0FFC00
1F3E00
0E1C00
FFFFC0
FFFFC0
FFFFC0
FFFFC0
F00000
F00000
F00000
F00000
F00000
F00000
F00000
FFFE00
FFFE00
FFFE00
FFFE00
F00000
F00000
F00000
F00000
F00000
F00000
F00000
FFFFC0
FFFFC0
FFFFC0
FFFFC0
ENDCHAR
STARTCHAR 00CB
ENCODING 203
SWIDTH 660 0
DWIDTH 22 0
BBX 18 33 0 0
BITMAP
0E0C00
0E1E00
0E1E00
0E0C00
000000
000000
000000
FFFFC0
FFFFC0
FFFFC0
FFFFC0
F00000
F00000
F00000
F00000
F00000
F00000
F00000
FFFE00
FFFE00
FFFE00
FFFE00
F00000
F00000
F00000
F00000
F00000
F00000
F00000
FFFFC0
FFFFC0
FFFFC0
FFFFC0
ENDCHAR
STARTCHAR 00CC
ENCODING 204
SWIDTH 660 0
DWIDTH 22 0
BBX 18 33 0 0
BITMAP
040000
0E0000
1F0000
0F8000
07C000
03E000
01E000
FFFFC0
FFFFC0
FFFFC0
FFFFC0
01E000
01E000
01E000
01E000
01E000
01E000
01E000
01E000
01E000
01E000
01E000
01E000
01E000
01E000
01E000
01E000
01E000
01E000
FFFFC0
FFFFC0
FFFFC0
FFFFC0
ENDCHAR
STARTCHAR 00CD
ENCODING 205
SWIDTH 660 0
DWIDTH 22 0
BBX 18 33 0 0
BITMAP
000800
001C00
003E00
007C00
00F800
01F000
00E000
FFFFC0
FFFFC0
FFFFC0
FFFFC0
01E000
01E000
01E000
01E000
01E000
01E000
01E000
01E000
01E000
01E000
01E000
01E000
01E000
01E000
01E000
01E000
01E000
01E000
FFFFC0
FFFFC0
FFFFC0
FFFFC0
ENDCHAR
STARTCHAR 00CE
ENCODING 206
SWIDTH 660 0
DWIDTH 22 0
BBX 18 33 0 0
BITMAP
004000
00E000
01F000
07F800
0FFC00
1F3E00
0E1C00
FFFFC0
FFFFC0
FFFFC0
FFFFC0
01E000
01E000
01E000
01E000
01E000
01E000
01E000
01E000
01E000
01E000
01E000
01E000
01E000
01E000
01E000
01E000
01E000
01E000
FFFFC0
FFFFC0
FFFFC0
FFFFC0
ENDCHAR
STARTCHAR 00CF
ENCODING 207
SWIDTH 660 0
DWIDTH 22 0
BBX 18 33 0 0
BITMAP
0E0C00
0E1E00
0E1E00
0E0C00
000000
000000
000000
FFFFC0
FFFFC0
FFFFC0
FFFFC0
01E000
01E000
01E000
01E000
01E000
01E000
01E000
01E000
01E000
01E000
01E000
01E000
01E000
01E000
01E000
01E000
01E000
01E000
FFFFC0
FFFFC0
FFFFC0
FFFFC0
ENDCHAR
STARTCHAR 00D0
ENCODING 208
SWIDTH 660 0
DWIDTH 22 0
BBX 18 26 0 0
BITMAP
0FFC00
0FFE00
0FFF00
0FFF80
0E07C0
0E03C0
0E03C0
0E01C0
0E01C0
0E01C0
0E01C0
FFE1C0
FFE1C0
FFE1C0
FFE1C0
0E01C0
0E01C0
0E01C0
0E01C0
0E03C0
0E03C0
0E07C0
0FFF80
0FFF00
0FFE00
0FFC00
ENDCHAR
STARTCHAR 00D1
ENCODING 209
SWIDTH 660 0
DWIDTH 22 0
BBX 18 34 0 0
BITMAP
1F01C0
3F81C0
7FC1C0
FFE3C0
F1FFC0
F0FF80
F07F00
F01E00
E001C0
F001C0
F801C0
FC01C0
FE01C0
FF01C0
FF81C0
F7C1C0
F3E1C0
F1F1C0
F0F9C0
F07DC0
F03FC0
F01FC0
F00FC0
F007C0
F003C0
F001C0
F001C0
F001C0
F001C0
F001C0
F001C0
F001C0
F001C0
F001C0
ENDCHAR
STARTCHAR 00D2
ENCODING 210
SWIDTH 660 0
DWIDTH 22 0
BBX 18 33 0 0
BITMAP
040000
0E0000
1F0000
0F8000
07C000
03E000
01E000
07FC00
1FFE00
3FFF00
7FFF80
7C07C0
F003C0
F003C0
F001C0
F001C0
F001C0
F001C0
F001C0
F001C0
F001C0
F001C0
F001C0
F001C0
F001C0
F001C0
F003C0
F003C0
7807C0
7FFF80
3FFF80
1FFE00
07FC00
ENDCHAR
STARTCHAR 00D3
ENCODING 211
SWIDTH 660 0
DWIDTH 22 0
BBX 18 33 0 0
BITMAP
000800
001C00
003E00
007C00
00F800
01F000
00E000
07FC00
1FFE00
3FFF00
7FFF80
7C07C0
F003C0
F003C0
F001C0
F001C0
F001C0
F001C0
F001C0
F001C0
F001C0
F001C0
F001C0
F001C0
F001C0
F001C0
F003C0
F003C0
7807C0
7FFF80
3FFF80
1FFE00
07FC00
ENDCHAR
STARTCHAR 00D4
ENCODING 212
SWIDTH 660 0
DWIDTH 22 0
BBX 18 33 0 0
BITMAP
004000
00E000
01F000
03F800
0FFC00
1F3E00
0E1C00
07F800
1FFE00
3FFF00
7FFF80
7C07C0
F003C0
F003C0
F001C0
F001C0
F001C0
F001C0
F001C0
F001C0
F001C0
F001C0
F001C0
F001C0
F001C0
F001C0
F003C0
F003C0
7807C0
7FFF80
3FFF00
1FFE00
07FC00
ENDCHAR
STARTCHAR 00D5
ENCODING 213
SWIDTH 660 0
DWIDTH 22 0
BBX 18 33 0 0
BITMAP
1F01C0
3F81C0
7FC1C0
FFE3C0
F1FFC0
F0FF80
F07F00
307E00
07FE00
1FFF00
3FFF80
7C07C0
F003C0
F003C0
F001C0
F001C0
F001C0
F001C0
F001C0
F001C0
F001C0
F001C0
F001C0
F001C0
F001C0
F001C0
F003C0
F003C0
F807C0
7FFF80
3FFF00
1FFE00
07FC00
ENDCHAR
STARTCHAR 00D6
ENCODING 214
SWIDTH 660 0
DWIDTH 22 0
BBX 18 33 0 0
BITMAP
0E0C00
0E1E00
0E1E00
0E0C00
000000
000000
000000
07FC00
1FFE00
3FFF00
7FFF80
7C07C0
F003C0
F003C0
F001C0
F001C0
F001C0
F001C0
F001C0
F001C0
F001C0
F001C0
F001C0
F001C0
F001C0
F001C0
F003C0
F003C0
7807C0
7FFF80
3FFF00
1FFE00
07FC00
ENDCHAR
STARTCHAR 00D7
ENCODING 215
SWIDTH 660 0
DWIDTH 22 0
BBX 18 18 0 4
BITMAP
200100
700380
F807C0
7C0F80
3E1F00
1F3E00
0FFC00
07F800
03F000
03F000
07F800
0FFC00
1F3E00
3E1F00
7C0F80
F807C0
700380
200100
ENDCHAR
STARTCHAR 00D8
ENCODING 216
SWIDTH 660 0
DWIDTH 22 0
BBX 18 26 0 0
BITMAP
07FC00
1FFE00
3FFF00
7FFF80
7C07C0
F003C0
F007C0
F00FC0
F01FC0
F03FC0
F07DC0
F0F9C0
F1F1C0
F3E1C0
F7C1C0
FF81C0
FF01C0
FE01C0
FC01C0
F803C0
F003C0
7807C0
7FFF80
3FFF00
1FFE00
07FC00
ENDCHAR
STARTCHAR 00D9
ENCODING 217
SWIDTH 660 0
DWIDTH 22 0
BBX 18 33 0 0
BITMAP
040000
0E0000
1F0000
0F8000
07C000
03E000
01E000
F0C1C0
F001C0
F001C0
F001C0
F001C0
F001C0
F001C0
F001C0
F001C0
F001C0
F001C0
F001C0
F001C0
F001C0
F001C0
F001C0
F001C0
F001C0
F001C0
F003C0
F003C0
7807C0
7FFF80
3FFF00
1FFE00
07FC00
ENDCHAR
STARTCHAR 00DA
ENCODING 218
SWIDTH 660 0
DWIDTH 22 0
BBX 18 33 0 0
BITMAP
000800
001C00
003E00
007C00
00F800
01F000
01E000
F0C1C0
F001C0
F001C0
F001C0
F001C0
F001C0
F001C0
F001C0
F001C0
F001C0
F001C0
F001C0
F001C0
F001C0
F001C0
F001C0
F001C0
F001C0
F001C0
F003C0
F003C0
7807C0
7FFF80
3FFF00
1FFE00
07FC00
ENDCHAR
STARTCHAR 00DB
ENCODING 219
SWIDTH 660 0
DWIDTH 22 0
BBX 18 33 0 0
BITMAP
004000
00E000
01F000
03F800
07FC00
0FBE00
1F1E00
F60DC0
F001C0
F001C0
F001C0
F001C0
F001C0
F001C0
F001C0
F001C0
F001C0
F001C0
F001C0
F001C0
F001C0
F001C0
F001C0
F001C0
F001C0
F001C0
F003C0
F003C0
7807C0
7FFF80
3FFF00
1FFE00
07FC00
ENDCHAR
STARTCHAR 00DC
ENCODING 220
SWIDTH 660 0
DWIDTH 22 0
BBX 18 33 0 0
BITMAP
0E0C00
0E1E00
0E1E00
0E0C00
000000
000000
000000
F001C0
F001C0
F001C0
F001C0
F001C0
F001C0
F001C0
F001C0
F001C0
F001C0
F001C0
F001C0
F001C0
F001C0
F001C0
F001C0
F001C0
F001C0
F001C0
F003C0
F003C0
7807C0
7FFF80
3FFF00
1FFE00
07FC00
ENDCHAR
STARTCHAR 00DD
ENCODING 221
SWIDTH 660 0
DWIDTH 22 0
BBX 18 33 0 0
BITMAP
000800
001C00
003E00
007C00
00F800
01F000
01E000
F0C1C0
F001C0
F001C0
F001C0
F001C0
F001C0
F001C0
F001C0
F001C0
F003C0
F807C0
7C0F80
3E1F00
1F3E00
0FFC00
07F800
03F000
01E000
01E000
01E000
01E000
01E000
01E000
01E000
01E000
01E000
ENDCHAR
STARTCHAR 00DE
ENCODING 222
SWIDTH 660 0
DWIDTH 22 0
BBX 18 26 0 0
BITMAP
F00000
F00000
F00000
F00000
FFFC00
FFFE00
FFFF00
FFFF80
F007C0
F003C0
F003C0
F001C0
F003C0
F003C0
F007C0
FFFF80
FFFF00
FFFE00
FFFC00
F00000
F00000
F00000
F00000
F00000
F00000
F00000
ENDCHAR
STARTCHAR 00DF
ENCODING 223
SWIDTH 660 0
DWIDTH 22 0
BBX 18 34 0 -4
BITMAP
00FC00
01FE00
03FF00
07FF80
0F87C0
1F03C0
3E03C0
7C01C0
7801C0
F003C0
F007C0
F00F80
F01F00
F01E00
F01E00
F01E00
F01E00
F01F00
F00F80
F007C0
F003C0
F001C0
F001C0
F003C0
F003C0
F007C0
F1FF80
F1FF00
F1FE00
F1FC00
F00000
F00000
F00000
F00000
ENDCHAR
STARTCHAR 00E0
ENCODING 224
SWIDTH 660 0
DWIDTH 22 0
BBX 18 30 0 0
BITMAP
004000
00E000
01F000
00F800
007C00
003E00
001E00
000C00
000000
000000
000000
000000
3FFC00
3FFF00
3FFF80
000F80
0003C0
0003C0
0001C0
1FFFC0
7FFFC0
7FFFC0
FFFFC0
F001C0
F001C0
F001C0
FFFFC0
7FFFC0
7FFFC0
1FFFC0
ENDCHAR
STARTCHAR 00E1
ENCODING 225
SWIDTH 660 0
DWIDTH 22 0
BBX 18 30 0 0
BITMAP
000800
001C00
003E00
007C00
00F800
01F000
01E000
00C000
000000
000000
000000
000000
3FFC00
3FFF00
3FFF80
000F80
0003C0
0003C0
0001C0
1FFFC0
7FFFC0
7FFFC0
FFFFC0
F001C0
F001C0
F001C0
FFFFC0
7FFFC0
7FFFC0
1FFFC0
ENDCHAR
STARTCHAR 00E2
ENCODING 226
SWIDTH 660 0
DWIDTH 22 0
BBX 18 30 0 0
BITMAP
004000
00E000
01F000
03F800
07FC00
0FBE00
1F1E00
060C00
000000
000000
000000
000000
3FFC00
3FFF00
3FFF80
000F80
0003C0
0003C0
0001C0
1FFFC0
7FFFC0
7FFFC0
FFFFC0
F001C0
F001C0
F001C0
FFFFC0
7FFFC0
7FFFC0
1FFFC0
ENDCHAR
STARTCHAR 00E3
ENCODING 227
SWIDTH 660 0
DWIDTH 22 0
BBX 18 29 0 0
BITMAP
1F81C0
7FC1C0
7FE3C0
FBFFC0
F0FF80
F07F80
F03E00
000000
000000
000000
000000
3FFC00
3FFF00
3FFF80
000F80
0003C0
0003C0
0001C0
1FFFC0
7FFFC0
7FFFC0
FFFFC0
F001C0
F001C0
F001C0
FFFFC0
7FFFC0
7FFFC0
1FFFC0
ENDCHAR
STARTCHAR 00E4
ENCODING 228
SWIDTH 660 0
DWIDTH 22 0
BBX 18 26 0 0
BITMAP
040C00
0E1E00
0E1E00
0E0C00
000000
000000
000000
000000
3FFC00
3FFF00
3FFF80
000F80
0003C0
0003C0
0001C0
1FFFC0
7FFFC0
7FFFC0
FFFFC0
F001C0
F001C0
F001C0
FFFFC0
7FFFC0
7FFFC0
1FFFC0
ENDCHAR
STARTCHAR 00E5
ENCODING 229
SWIDTH 660 0
DWIDTH 22 0
BBX 18 29 0 0
BITMAP
03F000
07F800
0FFC00
0F3C00
0E1E00
0E1E00
0F3E00
0FFC00
07FC00
03F800
00C000
3FFC00
3FFF00
3FFF80
000F80
0003C0
0003C0
0001C0
1FFFC0
7FFFC0
7FFFC0
FFFFC0
F001C0
F001C0
F001C0
FFFFC0
7FFFC0
7FFFC0
1FFFC0
ENDCHAR
STARTCHAR 00E6
ENCODING 230
SWIDTH 660 0
DWIDTH 22 0
BBX 18 19 0 0
BITMAP
07F800
1FFE00
3FFF00
7FFF80
7DE7C0
F1E3C0
F1E3C0
F1E1C0
F1FFC0
F1FFC0
F1FFC0
F1FFC0
F1E000
F1E000
F9E000
7FFFC0
3FFFC0
1FFFC0
07FFC0
ENDCHAR
STARTCHAR 00E7
ENCODING 231
SWIDTH 660 0
DWIDTH 22 0
BBX 18 26 0 -7
BITMAP
07F800
1FFE00
3FFF00
7FFF80
7C07C0
F003C0
F003C0
F001C0
F00000
F00000
F00000
F00000
F00000
F00000
780000
7FFFC0
3FFFC0
1FFFC0
07FFC0
01E000
03F000
07C000
0F8000
1F0000
0E0000
040000
ENDCHAR
STARTCHAR 00E8
ENCODING 232
SWIDTH 660 0
DWIDTH 22 0
BBX 18 30 0 0
BITMAP
040000
0E0000
1F0000
0F8000
07C000
03E000
01E000
00C000
000000
000000
000000
000000
0FFC00
1FFF00
3FFF80
7C0F80
F803C0
F003C0
F001C0
FFFFC0
FFFFC0
FFFFC0
FFFFC0
F00000
F00000
780000
7FFF80
3FFF80
1FFF80
07FF80
ENDCHAR
STARTCHAR 00E9
ENCODING 233
SWIDTH 660 0
DWIDTH 22 0
BBX 18 30 0 0
BITMAP
000800
001C00
003E00
007C00
00F800
01F000
01E000
00C000
000000
000000
000000
000000
0FFC00
1FFF00
3FFF80
7C0F80
F803C0
F003C0
F001C0
FFFFC0
FFFFC0
FFFFC0
FFFFC0
F00000
F00000
780000
7FFF80
3FFF80
1FFF80
07FF80
ENDCHAR
STARTCHAR 00EA
ENCODING 234
SWIDTH 660 0
DWIDTH 22 0
BBX 18 30 0 0
BITMAP
004000
00E000
01F000
03F800
07FC00
0FBE00
1F1E00
060C00
000000
000000
000000
000000
0FFC00
1FFF00
3FFF80
7C0F80
F803C0
F003C0
F001C0
FFFFC0
FFFFC0
FFFFC0
FFFFC0
F00000
F00000
780000
7FFF80
3FFF80
1FFF80
07FF80
ENDCHAR
STARTCHAR 00EB
ENCODING 235
SWIDTH 660 0
DWIDTH 22 0
BBX 18 26 0 0
BITMAP
040C00
0E1E00
0E1E00
0E0C00
000000
000000
000000
000000
0FFC00
1FFF00
3FFF80
7C0F80
F803C0
F003C0
F001C0
FFFFC0
FFFFC0
FFFFC0
FFFFC0
F00000
F00000
780000
7FFF80
3FFF80
1FFF80
07FF80
ENDCHAR
STARTCHAR 00EC
ENCODING 236
SWIDTH 660 0
DWIDTH 22 0
BBX 12 30 3 0
BITMAP
2000
7000
F800
7C00
3E00
1F00
0F00
0600
0000
0000
0000
7F00
7F00
7F00
7F00
0F00
0F00
0F00
0F00
0F00
0F00
0F00
0F00
0F00
0F00
0F00
7FF0
7FF0
7FF0
7FF0
ENDCHAR
STARTCHAR 00ED
ENCODING 237
SWIDTH 660 0
DWIDTH 22 0
BBX 11 30 4 0
BITMAP
0080
01C0
03E0
07C0
0F80
1F00
1E00
0C00
0000
0000
0000
FE00
FE00
FE00
FE00
1E00
1E00
1E00
1E00
1E00
1E00
1E00
1E00
1E00
1E00
1E00
FFE0
FFE0
FFE0
FFE0
ENDCHAR
STARTCHAR 00EE
ENCODING 238
SWIDTH 660 0
DWIDTH 22 0
BBX 12 30 3 0
BITMAP
0200
0700
0F80
1FC0
3FE0
7DF0
F8F0
3060
0000
0000
0000
7F00
7F00
7F00
7F00
0F00
0F00
0F00
0F00
0F00
0F00
0F00
0F00
0F00
0F00
0F00
7FF0
7FF0
7FF0
7FF0
ENDCHAR
STARTCHAR 00EF
ENCODING 239
SWIDTH 660 0
DWIDTH 22 0
BBX 11 26 4 0
BITMAP
E0C0
E1E0
E1E0
E0C0
0000
0000
0000
FE00
FE00
FE00
FE00
1E00
1E00
1E00
1E00
1E00
1E00
1E00
1E00
1E00
1E00
1E00
FFE0
FFE0
FFE0
FFE0
ENDCHAR
STARTCHAR 00F0
ENCODING 240
SWIDTH 660 0
DWIDTH 22 0
BBX 18 31 0 0
BITMAP
044000
1EE000
3FF000
1FE000
0FC000
0FC000
1FE000
3EF000
0C7800
083C00
001E00
000F00
07FF80
1FFFC0
3FFFC0
7FFFC0
7C07C0
F003C0
F003C0
F001C0
F001C0
F001C0
F001C0
F001C0
F003C0
F003C0
7807C0
7FFF80
3FFF80
1FFE00
07FC00
ENDCHAR
STARTCHAR 00F1
ENCODING 241
SWIDTH 660 0
DWIDTH 22 0
BBX 18 30 0 0
BITMAP
1F01C0
3F81C0
7FC1C0
FFE3C0
F1FFC0
F0FF80
F07F00
F01E00
000000
000000
000000
F07C00
F1FE00
F3FF00
F7FF80
FF87C0
FF03C0
FE03C0
FC01C0
F801C0
F001C0
F001C0
F001C0
F001C0
F001C0
F001C0
F001C0
F001C0
F001C0
F001C0
ENDCHAR
STARTCHAR 00F2
ENCODING 242
SWIDTH 660 0
DWIDTH 22 0
BBX 18 30 0 0
BITMAP
040000
0E0000
1F0000
0F8000
07C000
03E000
01E000
00C000
000000
000000
000000
07FC00
1FFE00
3FFF00
7FFF80
7C07C0
F003C0
F003C0
F001C0
F001C0
F001C0
F001C0
F001C0
F003C0
F003C0
7807C0
7FFF80
3FFF00
1FFE00
07FC00
ENDCHAR
STARTCHAR 00F3
ENCODING 243
SWIDTH 660 0
DWIDTH 22 0
BBX 18 30 0 0
BITMAP
000800
001C00
003E00
007C00
00F800
01F000
01E000
00C000
000000
000000
000000
07FC00
1FFE00
3FFF00
7FFF80
7C07C0
F003C0
F003C0
F001C0
F001C0
F001C0
F001C0
F001C0
F003C0
F003C0
7807C0
7FFF80
3FFF00
1FFE00
07FC00
ENDCHAR
STARTCHAR 00F4
ENCODING 244
SWIDTH 660 0
DWIDTH 22 0
BBX 18 30 0 0
BITMAP
004000
00E000
01F000
03F800
07FC00
0FBE00
1F1E00
060C00
000000
000000
000000
07FC00
1FFE00
3FFF00
7FFF80
7C07C0
F003C0
F003C0
F001C0
F001C0
F001C0
F001C0
F001C0
F003C0
F003C0
7807C0
7FFF80
3FFF00
1FFE00
07FC00
ENDCHAR
STARTCHAR 00F5
ENCODING 245
SWIDTH 660 0
DWIDTH 22 0
BBX 18 30 0 0
BITMAP
1F01C0
3F81C0
7FC1C0
FFE3C0
F1FFC0
F0FF80
F07F00
F01E00
000000
000000
000000
07FC00
1FFE00
3FFF00
7FFF80
7C07C0
F003C0
F003C0
F001C0
F001C0
F001C0
F001C0
F001C0
F003C0
F003C0
7807C0
7FFF80
3FFF00
1FFE00
07FC00
ENDCHAR
STARTCHAR 00F6
ENCODING 246
SWIDTH 660 0
DWIDTH 22 0
BBX 18 26 0 0
BITMAP
0E0C00
0E1E00
0E1E00
0E0C00
000000
000000
000000
07FC00
1FFE00
3FFF00
7FFF80
7C07C0
F003C0
F003C0
F001C0
F001C0
F001C0
F001C0
F001C0
F003C0
F003C0
7807C0
7FFF80
3FFF00
1FFE00
07FC00
ENDCHAR
STARTCHAR 00F7
ENCODING 247
SWIDTH 660 0
DWIDTH 22 0
BBX 18 18 0 4
BITMAP
00C000
01E000
01E000
00C000
000000
000000
000000
FFFFC0
FFFFC0
FFFFC0
FFFFC0
000000
000000
000000
00C000
01E000
01E000
00C000
ENDCHAR
STARTCHAR 00F8
ENCODING 248
SWIDTH 660 0
DWIDTH 22 0
BBX 18 19 0 0
BITMAP
07FC00
1FFE00
3FFF00
7FFF80
7C0FC0
F01FC0
F03FC0
F07DC0
F0F9C0
F1F1C0
F3E1C0
F7C1C0
FF83C0
FF03C0
7E07C0
7FFF80
3FFF00
1FFE00
07FC00
ENDCHAR
STARTCHAR 00F9
ENCODING 249
SWIDTH 660 0
DWIDTH 22 0
BBX 18 30 0 0
BITMAP
040000
0E0000
1F0000
0F8000
07C000
03E000
01E000
00C000
000000
000000
000000
000000
F001C0
F001C0
F001C0
F001C0
F001C0
F001C0
F001C0
F001C0
F001C0
F001C0
F001C0
F001C0
F003C0
7803C0
7FFFC0
3FFFC0
1FFFC0
07FDC0
ENDCHAR
STARTCHAR 00FA
ENCODING 250
SWIDTH 660 0
DWIDTH 22 0
BBX 18 30 0 0
BITMAP
000800
001C00
003E00
007C00
00F800
01F000
01E000
00C000
000000
000000
000000
000000
F001C0
F001C0
F001C0
F001C0
F001C0
F001C0
F001C0
F001C0
F001C0
F001C0
F001C0
F001C0
F003C0
7803C0
7FFFC0
3FFFC0
1FFFC0
07FDC0
ENDCHAR
STARTCHAR 00FB
ENCODING 251
SWIDTH 660 0
DWIDTH 22 0
BBX 18 30 0 0
BITMAP
008000
00C000
01E000
03F000
07F800
0FFC00
1F3E00
061C00
040800
000000
000000
000000
F001C0
F001C0
F001C0
F001C0
F001C0
F001C0
F001C0
F001C0
F001C0
F001C0
F001C0
F001C0
F003C0
7803C0
7FFFC0
3FFFC0
1FFFC0
07FDC0
ENDCHAR
STARTCHAR 00FC
ENCODING 252
SWIDTH 660 0
DWIDTH 22 0
BBX 18 26 0 0
BITMAP
040C00
0E1E00
0E1E00
0E0C00
000000
000000
000000
000000
F001C0
F001C0
F001C0
F001C0
F001C0
F001C0
F001C0
F001C0
F001C0
F001C0
F001C0
F001C0
F003C0
7803C0
7FFFC0
3FFFC0
1FFFC0
07FDC0
ENDCHAR
STARTCHAR 00FD
ENCODING 253
SWIDTH 660 0
DWIDTH 22 0
BBX 18 37 0 -7
BITMAP
000800
001C00
003E00
007C00
00F800
01F000
01E000
00C000
000000
000000
000000
F001C0
F001C0
F001C0
F001C0
F001C0
F001C0
F001C0
F001C0
F001C0
F001C0
F001C0
F001C0
F001C0
F001C0
7801C0
7FFFC0
3FFFC0
1FFFC0
07FFC0
0001C0
0003C0
0007C0
0FFF80
0FFF80
0FFE00
0FFC00
ENDCHAR
STARTCHAR 00FE
ENCODING 254
SWIDTH 660 0
DWIDTH 22 0
BBX 18 33 0 -7
BITMAP
F00000
F00000
F00000
F00000
F00000
F00000
F00000
FFFC00
FFFE00
FFFF00
FFFF80
F007C0
F003C0
F003C0
F001C0
F001C0
F001C0
F001C0
F001C0
F003C0
F003C0
F007C0
FFFF80
FFFF00
FFFE00
FFFC00
F00000
F00000
F00000
F00000
F00000
F00000
F00000
ENDCHAR
STARTCHAR 00FF
ENCODING 255
SWIDTH 660 0
DWIDTH 22 0
BBX 18 33 0 -7
BITMAP
0E0C00
0E1E00
0E1E00
0E0C00
000000
000000
000000
F001C0
F001C0
F001C0
F001C0
F001C0
F001C0
F001C0
F001C0
F001C0
F001C0
F001C0
F001C0
F001C0
F001C0
7801C0
7FFFC0
3FFFC0
1FFFC0
07FFC0
0001C0
0003C0
0007C0
0FFF80
0FFF80
0FFE00
0FFC00
ENDCHAR
STARTCHAR 0131
ENCODING 305
SWIDTH 660 0
DWIDTH 22 0
BBX 11 19 4 0
BITMAP
FE00
FE00
FE00
FE00
1E00
1E00
1E00
1E00
1E00
1E00
1E00
1E00
1E00
1E00
1E00
FFE0
FFE0
FFE0
FFE0
ENDCHAR
STARTCHAR 0152
ENCODING 338
SWIDTH 660 0
DWIDTH 22 0
BBX 18 26 0 0
BITMAP
07FFC0
1FFFC0
3FFFC0
7FFFC0
7DE000
F1E000
F1E000
F1E000
F1E000
F1E000
F1E000
F1FE00
F1FE00
F1FE00
F1FE00
F1E000
F1E000
F1E000
F1E000
F1E000
F1E000
79E000
7FFFC0
3FFFC0
1FFFC0
07FFC0
ENDCHAR
STARTCHAR 0153
ENCODING 339
SWIDTH 660 0
DWIDTH 22 0
BBX 18 19 0 0
BITMAP
1F1E00
3FFF00
7FFF80
FFFFC0
F1F3C0
F1E1C0
F1E1C0
F1F3C0
F1FFC0
F1FFC0
F1FFC0
F1FFC0
F1E000
F1E000
F1E000
FFFFC0
7FFFC0
3FFFC0
1F1FC0
ENDCHAR
STARTCHAR 0160
ENCODING 352
SWIDTH 660 0
DWIDTH 22 0
BBX 18 33 0 0
BITMAP
040800
0E1C00
1F3E00
0FFC00
07F800
03F000
01E000
07FC00
1FFE00
3FFF00
7FFF80
7807C0
F003C0
F003C0
F001C0
F00000
F00000
780000
7FFC00
3FFE00
1FFF00
07FF80
0007C0
0003C0
0003C0
F001C0
F003C0
F003C0
7807C0
7FFF80
3FFF00
1FFE00
07FC00
ENDCHAR
STARTCHAR 0161
ENCODING 353
SWIDTH 660 0
DWIDTH 22 0
BBX 18 30 0 0
BITMAP
040800
0E1C00
1F3E00
0FFC00
07F800
03F000
01E000
00C000
000000
000000
000000
07FFC0
1FFFC0
3FFFC0
7FFFC0
7C0000
F00000
700000
7C0000
7FF800
3FFE00
1FFF80
07FF80
0007C0
0003C0
0007C0
FFFF80
FFFF80
FFFE00
FFF800
ENDCHAR
STARTCHAR 0178
ENCODING 376
SWIDTH 660 0
DWIDTH 22 0
BBX 18 33 0 0
BITMAP
0E0C00
0E1E00
0E1E00
0E0C00
000000
000000
000000
F001C0
F001C0
F001C0
F001C0
F001C0
F001C0
F001C0
F001C0
F001C0
F003C0
F807C0
7C0F80
3E1F00
1F3E00
0FFC00
07F800
03F000
01E000
01E000
01E000
01E000
01E000
01E000
01E000
01E000
01E000
ENDCHAR
STARTCHAR 0192
ENCODING 402
SWIDTH 660 0
DWIDTH 22 0
BBX 18 40 0 -7
BITMAP
000FC0
003FC0
007FC0
00FFC0
00F800
01F000
01E000
01E000
01E000
01E000
01E000
01E000
01E000
01E000
0FFE00
0FFE00
0FFE00
0FFE00
01E000
01E000
01E000
01E000
01E000
01E000
01E000
01E000
01E000
01E000
01E000
01E000
01E000
01E000
01E000
01E000
01E000
07C000
FFC000
FF8000
FF0000
FC0000
ENDCHAR
STARTCHAR 02C6
ENCODING 710
SWIDTH 660 0
DWIDTH 22 0
BBX 12 8 3 22
BITMAP
0200
0700
0F80
3FC0
7FE0
F9F0
70E0
2040
ENDCHAR
STARTCHAR 02C7
ENCODING 711
SWIDTH 660 0
DWIDTH 22 0
BBX 12 8 3 22
BITMAP
2040
70E0
F9F0
7FE0
3FC0
1F80
0700
0200
ENDCHAR
STARTCHAR 02C9
ENCODING 713
SWIDTH 660 0
DWIDTH 22 0
BBX 11 4 4 22
BITMAP
FFE0
FFE0
FFE0
FFE0
ENDCHAR
STARTCHAR 02D6
ENCODING 726
SWIDTH 660 0
DWIDTH 22 0
BBX 18 8 0 22
BITMAP
1F01C0
3F81C0
7FC1C0
FFE3C0
F1FFC0
F0FF80
F07F00
F01E00
ENDCHAR
STARTCHAR 02D8
ENCODING 728
SWIDTH 660 0
DWIDTH 22 0
BBX 15 7 4 22
BITMAP
F01E
F03C
F87C
7FFC
3FF8
1FF0
0FC0
ENDCHAR
STARTCHAR 02D9
ENCODING 729
SWIDTH 660 0
DWIDTH 22 0
BBX 7 8 8 18
BITMAP
78
FC
FE
FE
FE
FE
FC
78
ENDCHAR
STARTCHAR 02DA
ENCODING 730
SWIDTH 660 0
DWIDTH 22 0
BBX 11 12 4 18
BITMAP
1F00
3F80
7FC0
FFC0
F1E0
F1E0
F1E0
F1E0
FFC0
7FC0
3F80
1F00
ENDCHAR
STARTCHAR 02DB
ENCODING 731
SWIDTH 660 0
DWIDTH 22 0
BBX 7 11 4 -7
BITMAP
FE
FE
FE
FE
E0
F0
F8
7C
3E
1C
08
ENDCHAR
STARTCHAR 02DC
ENCODING 732
SWIDTH 660 0
DWIDTH 22 0
BBX 18 8 0 22
BITMAP
1F01C0
3F81C0
7FC1C0
FFE3C0
F1FFC0
F0FF80
F07F00
F01E00
ENDCHAR
STARTCHAR 02DD
ENCODING 733
SWIDTH 660 0
DWIDTH 22 0
BBX 19 8 0 22
BITMAP
020080
0701C0
1F83E0
3E07C0
7C0F80
F81F00
700E00
200400
ENDCHAR
STARTCHAR 03BC
ENCODING 956
SWIDTH 660 0
DWIDTH 22 0
BBX 18 25 0 -7
BITMAP
F01E00
F01E00
F01E00
F01E00
F01E00
F01E00
F01E00
F01E00
F01E00
F01E00
F01E00
F01E00
F03E00
F07F00
FFFFC0
FFFFC0
FFF3C0
FFC0C0
F00000
F00000
F00000
F00000
F00000
F00000
F00000
ENDCHAR
STARTCHAR 2010
ENCODING 8208
SWIDTH 660 0
DWIDTH 22 0
BBX 11 4 4 11
BITMAP
FFE0
FFE0
FFE0
FFE0
ENDCHAR
STARTCHAR 2013
ENCODING 8211
SWIDTH 660 0
DWIDTH 22 0
BBX 11 4 4 11
BITMAP
FFE0
FFE0
FFE0
FFE0
ENDCHAR
STARTCHAR 2014
ENCODING 8212
SWIDTH 660 0
DWIDTH 22 0
BBX 22 4 0 11
BITMAP
FFFFFC
FFFFFC
FFFFFC
FFFFFC
ENDCHAR
STARTCHAR 2018
ENCODING 8216
SWIDTH 660 0
DWIDTH 22 0
BBX 7 12 7 15
BITMAP
08
1C
3E
7C
78
78
F0
F0
F0
F0
F0
F0
ENDCHAR
STARTCHAR 2019
ENCODING 8217
SWIDTH 660 0
DWIDTH 22 0
BBX 7 13 8 13
BITMAP
1E
1E
1E
1E
1E
1E
1E
3C
7C
F8
F8
70
20
ENDCHAR
STARTCHAR 201A
ENCODING 8218
SWIDTH 660 0
DWIDTH 22 0
BBX 7 12 0 -5
BITMAP
0E
0E
0E
0E
0E
0E
1E
3E
7C
F8
70
20
ENDCHAR
STARTCHAR 201C
ENCODING 8220
SWIDTH 660 0
DWIDTH 22 0
BBX 14 12 4 15
BITMAP
0810
1C38
3E7C
7CF8
F8F0
F1E0
E1E0
E1E0
E1E0
E1E0
E1E0
E1E0
ENDCHAR
STARTCHAR 201D
ENCODING 8221
SWIDTH 660 0
DWIDTH 22 0
BBX 14 13 4 13
BITMAP
1E1C
1E1C
1E1C
1E1C
1E1C
1E1C
1E3C
3E3C
3C7C
7CF8
F9F0
70E0
2040
ENDCHAR
STARTCHAR 201E
ENCODING 8222
SWIDTH 660 0
DWIDTH 22 0
BBX 15 12 0 -5
BITMAP
0E1E
0E1E
0E1E
0E1E
0E1E
0E1E
1E3C
3E3C
7C7C
F8F8
7070
2020
ENDCHAR
STARTCHAR 2020
ENCODING 8224
SWIDTH 660 0
DWIDTH 22 0
BBX 11 19 4 7
BITMAP
1E00
1E00
1E00
1E00
FFE0
FFE0
FFE0
FFE0
1E00
1E00
1E00
1E00
1E00
1E00
1E00
1E00
1E00
1E00
1E00
ENDCHAR
STARTCHAR 2021
ENCODING 8225
SWIDTH 660 0
DWIDTH 22 0
BBX 11 19 4 7
BITMAP
1E00
1E00
1E00
1E00
FFE0
FFE0
FFE0
FFE0
1E00
1E00
1E00
FFE0
FFE0
FFE0
FFE0
1E00
1E00
1E00
1E00
ENDCHAR
STARTCHAR 2022
ENCODING 8226
SWIDTH 660 0
DWIDTH 22 0
BBX 18 18 0 4
BITMAP
03F000
0FFC00
1FFF00
3FFF00
7FFF80
7FFFC0
FFFFC0
FFFFC0
FFFFC0
FFFFC0
FFFFC0
FFFFC0
7FFFC0
7FFF80
3FFF00
1FFF00
0FFC00
03F000
ENDCHAR
STARTCHAR 2026
ENCODING 8230
SWIDTH 660 0
DWIDTH 22 0
BBX 18 4 0 0
BITMAP
60C1C0
F1E1C0
F1E1C0
60C1C0
ENDCHAR
STARTCHAR 2030
ENCODING 8240
SWIDTH 660 0
DWIDTH 22 0
BBX 22 30 0 0
BITMAP
0FFFFC
3FFFFC
3FFFFC
7FFFF8
79E1F0
F1E3E0
F1E7C0
F0EF80
F1FF00
F1FF00
79FE00
7FFC00
3FF800
3FF000
0FE000
0FE1E0
1FFFF0
3FFFF8
7FFFF8
7F3F3C
FF1E3C
FF1E3C
EF1E1C
CF1E3C
8F1E3C
0F3F3C
07FFF8
07FFF8
03FFF0
01E1E0
ENDCHAR
STARTCHAR 2039
ENCODING 8249
SWIDTH 660 0
DWIDTH 22 0
BBX 7 17 0 -1
BITMAP
18
1E
1E
3C
3C
78
78
F0
F0
F0
78
78
3C
3C
1C
1E
18
ENDCHAR
STARTCHAR 203A
ENCODING 8250
SWIDTH 660 0
DWIDTH 22 0
BBX 7 17 0 -1
BITMAP
10
F0
78
78
3C
3C
1C
1E
1E
1E
1C
3C
3C
78
78
F0
10
ENDCHAR
STARTCHAR 2122
ENCODING 8482
SWIDTH 660 0
DWIDTH 22 0
BBX 22 11 0 15
BITMAP
FFFE3C
FFFE3C
FFFF7C
FFFF7C
0E1FFC
0E1FFC
0E1FFC
0E1EBC
0E1EBC
0E1E3C
0E1E3C
ENDCHAR
STARTCHAR 2212
ENCODING 8722
SWIDTH 660 0
DWIDTH 22 0
BBX 18 4 0 11
BITMAP
FFFFC0
FFFFC0
FFFFC0
FFFFC0
ENDCHAR
STARTCHAR 2219
ENCODING 8729
SWIDTH 660 0
DWIDTH 22 0
BBX 8 8 7 8
BITMAP
3C
7E
7E
FF
FF
7E
7E
3C
ENDCHAR
STARTCHAR E001
ENCODING 57345
SWIDTH 660 0
DWIDTH 22 0
BBX 0 0 0 0
BITMAP
ENDCHAR
STARTCHAR E003
ENCODING 57347
SWIDTH 660 0
DWIDTH 22 0
BBX 0 0 0 0
BITMAP
ENDCHAR
STARTCHAR E004
ENCODING 57348
SWIDTH 660 0
DWIDTH 22 0
BBX 0 0 0 0
BITMAP
ENDCHAR
STARTCHAR E005
ENCODING 57349
SWIDTH 660 0
DWIDTH 22 0
BBX 0 0 0 0
BITMAP
ENDCHAR
STARTCHAR E006
ENCODING 57350
SWIDTH 660 0
DWIDTH 22 0
BBX 0 0 0 0
BITMAP
ENDCHAR
STARTCHAR E007
ENCODING 57351
SWIDTH 660 0
DWIDTH 22 0
BBX 0 0 0 0
BITMAP
ENDCHAR
STARTCHAR E008
ENCODING 57352
SWIDTH 660 0
DWIDTH 22 0
BBX 0 0 0 0
BITMAP
ENDCHAR
STARTCHAR E009
ENCODING 57353
SWIDTH 660 0
DWIDTH 22 0
BBX 0 0 0 0
BITMAP
ENDCHAR
STARTCHAR E00A
ENCODING 57354
SWIDTH 660 0
DWIDTH 22 0
BBX 0 0 0 0
BITMAP
ENDCHAR
STARTCHAR E00B
ENCODING 57355
SWIDTH 660 0
DWIDTH 22 0
BBX 0 0 0 0
BITMAP
ENDCHAR
STARTCHAR E00C
ENCODING 57356
SWIDTH 660 0
DWIDTH 22 0
BBX 0 0 0 0
BITMAP
ENDCHAR
STARTCHAR E00D
ENCODING 57357
SWIDTH 660 0
DWIDTH 22 0
BBX 0 0 0 0
BITMAP
ENDCHAR
STARTCHAR E00E
ENCODING 57358
SWIDTH 660 0
DWIDTH 22 0
BBX 0 0 0 0
BITMAP
ENDCHAR
STARTCHAR E00F
ENCODING 57359
SWIDTH 660 0
DWIDTH 22 0
BBX 0 0 0 0
BITMAP
ENDCHAR
STARTCHAR E010
ENCODING 57360
SWIDTH 660 0
DWIDTH 22 0
BBX 0 0 0 0
BITMAP
ENDCHAR
STARTCHAR E011
ENCODING 57361
SWIDTH 660 0
DWIDTH 22 0
BBX 0 0 0 0
BITMAP
ENDCHAR
STARTCHAR E012
ENCODING 57362
SWIDTH 660 0
DWIDTH 22 0
BBX 0 0 0 0
BITMAP
ENDCHAR
STARTCHAR E013
ENCODING 57363
SWIDTH 660 0
DWIDTH 22 0
BBX 0 0 0 0
BITMAP
ENDCHAR
STARTCHAR E014
ENCODING 57364
SWIDTH 660 0
DWIDTH 22 0
BBX 0 0 0 0
BITMAP
ENDCHAR
STARTCHAR E015
ENCODING 57365
SWIDTH 660 0
DWIDTH 22 0
BBX 0 0 0 0
BITMAP
ENDCHAR
STARTCHAR E016
ENCODING 57366
SWIDTH 660 0
DWIDTH 22 0
BBX 0 0 0 0
BITMAP
ENDCHAR
STARTCHAR E017
ENCODING 57367
SWIDTH 660 0
DWIDTH 22 0
BBX 0 0 0 0
BITMAP
ENDCHAR
STARTCHAR E018
ENCODING 57368
SWIDTH 660 0
DWIDTH 22 0
BBX 0 0 0 0
BITMAP
ENDCHAR
STARTCHAR E019
ENCODING 57369
SWIDTH 660 0
DWIDTH 22 0
BBX 0 0 0 0
BITMAP
ENDCHAR
STARTCHAR E01A
ENCODING 57370
SWIDTH 660 0
DWIDTH 22 0
BBX 0 0 0 0
BITMAP
ENDCHAR
STARTCHAR E01B
ENCODING 57371
SWIDTH 660 0
DWIDTH 22 0
BBX 0 0 0 0
BITMAP
ENDCHAR
STARTCHAR E01C
ENCODING 57372
SWIDTH 660 0
DWIDTH 22 0
BBX 0 0 0 0
BITMAP
ENDCHAR
STARTCHAR E01D
ENCODING 57373
SWIDTH 660 0
DWIDTH 22 0
BBX 0 0 0 0
BITMAP
ENDCHAR
STARTCHAR E01E
ENCODING 57374
SWIDTH 660 0
DWIDTH 22 0
BBX 0 0 0 0
BITMAP
ENDCHAR
STARTCHAR E01F
ENCODING 57375
SWIDTH 660 0
DWIDTH 22 0
BBX 0 0 0 0
BITMAP
ENDCHAR
ENDFONT
